<svg width="287" height="302" viewBox="0 0 287 302" fill="none" xmlns="http://www.w3.org/2000/svg">
<path d="M224.697 191.337H49.5034V25.6316H224.697V191.337Z" fill="#F49355"/>
<path d="M9.71733 250.485H14.5467C15.904 250.485 17.0573 250.01 18.0093 249.06C18.9587 248.109 19.4347 246.974 19.4347 245.656V240.825C19.4347 239.468 18.9587 238.314 18.0093 237.364C17.0573 236.413 15.904 235.938 14.5467 235.938H9.71733V250.485ZM0 274.749V231.109H19.4347C22.072 231.109 24.3413 232.069 26.2427 233.989C28.1427 235.909 29.0933 238.188 29.0933 240.825V245.656C29.0933 248.293 28.1427 250.572 26.2427 252.492C24.3413 254.412 22.072 255.373 19.4347 255.373H9.71733V274.749H0Z" fill="#373535"/>
<path d="M48.5271 240.825V265.031C48.5271 266.351 49.0018 267.495 49.9525 268.464C50.9031 269.435 52.0378 269.919 53.3565 269.919C54.7138 269.919 55.8671 269.435 56.8191 268.464C57.7685 267.495 58.2445 266.351 58.2445 265.031V240.825C58.2445 239.468 57.7685 238.315 56.8191 237.364C55.8671 236.413 54.7138 235.937 53.3565 235.937C52.0378 235.937 50.9031 236.413 49.9525 237.364C49.0018 238.315 48.5271 239.468 48.5271 240.825ZM48.5271 231.108H58.2445C60.8818 231.108 63.1511 232.069 65.0525 233.989C66.9525 235.908 67.9031 238.188 67.9031 240.825V265.031C67.9031 267.669 66.9525 269.948 65.0525 271.868C63.1511 273.788 60.8818 274.748 58.2445 274.748H48.5271C45.8885 274.748 43.6098 273.799 41.6898 271.897C39.7698 269.997 38.8098 267.708 38.8098 265.031V240.825C38.8098 238.149 39.7698 235.86 41.6898 233.96C43.6098 232.06 45.8885 231.108 48.5271 231.108Z" fill="#373535"/>
<path d="M106.713 265.031C106.324 271.509 103.105 274.748 97.0534 274.748H87.3375C84.6988 274.748 82.4201 273.799 80.5001 271.897C78.5801 269.997 77.6201 267.708 77.6201 265.031V240.825C77.6201 238.188 78.5601 235.908 80.4414 233.988C82.3228 232.068 84.6215 231.108 87.3375 231.108H97.0534C103.144 231.108 106.364 234.347 106.713 240.825H101.883C101.495 237.567 99.8854 235.937 97.0534 235.937H92.1668C90.8481 235.937 89.7134 236.413 88.7628 237.364C87.8121 238.313 87.3375 239.468 87.3375 240.825V265.031C87.3375 266.351 87.8121 267.495 88.7628 268.464C89.7134 269.435 90.8481 269.919 92.1668 269.919H97.0534C99.9241 269.919 101.535 268.289 101.883 265.031H106.713Z" fill="#373535"/>
<path d="M116.43 274.748V231.108H126.147V250.484H135.864V231.108H145.523V274.748H135.864V255.372H126.147V274.748H116.43Z" fill="#373535"/>
<path d="M160.127 274.748V235.938H150.411V231.108H179.504V235.938H169.786V274.748H160.127Z" fill="#373535"/>
<path d="M184.333 274.748V231.108H208.597V235.938H194.05V250.484H203.767V255.372H194.05V269.919H208.597V274.748H184.333Z" fill="#373535"/>
<path d="M247.348 265.031C246.96 271.509 243.74 274.748 237.69 274.748H227.972C225.334 274.748 223.055 273.799 221.135 271.897C219.214 269.997 218.255 267.708 218.255 265.031V240.825C218.255 238.188 219.195 235.908 221.076 233.988C222.958 232.068 225.256 231.108 227.972 231.108H237.69C243.778 231.108 246.999 234.347 247.348 240.825H242.519C242.131 237.567 240.52 235.937 237.69 235.937H232.802C231.483 235.937 230.347 236.413 229.398 237.364C228.446 238.313 227.972 239.468 227.972 240.825V265.031C227.972 266.351 228.446 267.495 229.398 268.464C230.347 269.435 231.483 269.919 232.802 269.919H237.69C240.559 269.919 242.17 268.289 242.519 265.031H247.348Z" fill="#373535"/>
<path d="M266.782 250.485H276.499V240.825C276.499 239.468 276.023 238.314 275.074 237.364C274.122 236.413 272.968 235.938 271.611 235.938C270.292 235.938 269.156 236.413 268.207 237.364C267.255 238.314 266.782 239.468 266.782 240.825V250.485ZM257.064 274.749V240.825C257.064 238.149 258.024 235.861 259.944 233.96C261.864 232.06 264.143 231.109 266.782 231.109H276.499C279.136 231.109 281.406 232.069 283.307 233.989C285.206 235.909 286.158 238.188 286.158 240.825V274.749H276.499V255.373H266.782V274.749H257.064Z" fill="#373535"/>
<path d="M0.00585938 292.329C0.00585938 291.201 0.209859 290.085 0.617859 288.982C1.02586 287.881 1.62053 286.894 2.40186 286.026C3.18319 285.158 4.13786 284.456 5.26719 283.917C6.39519 283.38 7.67919 283.109 9.12053 283.109C10.8219 283.109 12.2939 283.484 13.5352 284.229C14.7765 284.976 15.7005 285.949 16.3099 287.146L13.5485 289.048C13.3059 288.526 13.0099 288.089 12.6632 287.733C12.3152 287.377 11.9419 287.094 11.5432 286.886C11.1432 286.678 10.7272 286.525 10.2925 286.43C9.85919 286.334 9.43386 286.288 9.01653 286.288C8.11386 286.288 7.32853 286.469 6.66053 286.834C5.99119 287.198 5.43653 287.672 4.99386 288.253C4.54986 288.836 4.21653 289.496 3.98986 290.233C3.76453 290.97 3.65119 291.704 3.65119 292.433C3.65119 293.249 3.78186 294.034 4.04186 294.79C4.30319 295.545 4.67253 296.209 5.14986 296.782C5.62719 297.356 6.20053 297.816 6.86853 298.162C7.53653 298.51 8.26986 298.684 9.06853 298.684C9.48586 298.684 9.91919 298.632 10.3712 298.528C10.8219 298.424 11.2525 298.258 11.6605 298.033C12.0672 297.806 12.4459 297.516 12.7925 297.161C13.1405 296.804 13.4179 296.374 13.6259 295.87L16.5699 297.564C16.2739 298.258 15.8539 298.87 15.3059 299.4C14.7592 299.93 14.1432 300.377 13.4565 300.741C12.7712 301.106 12.0379 301.384 11.2565 301.574C10.4752 301.765 9.71119 301.861 8.96453 301.861C7.64453 301.861 6.43919 301.584 5.34453 301.028C4.25119 300.472 3.30986 299.748 2.51919 298.853C1.72853 297.96 1.11253 296.942 0.669859 295.805C0.227193 294.669 0.00585938 293.51 0.00585938 292.329Z" fill="#373535"/>
<path d="M22.7928 292.459C22.7928 293.258 22.9141 294.031 23.1568 294.777C23.4008 295.523 23.7528 296.183 24.2128 296.757C24.6728 297.33 25.2368 297.79 25.9048 298.137C26.5728 298.485 27.3328 298.658 28.1835 298.658C29.0515 298.658 29.8208 298.481 30.4888 298.125C31.1568 297.767 31.7208 297.294 32.1821 296.705C32.6421 296.114 32.9888 295.45 33.2235 294.711C33.4581 293.974 33.5741 293.223 33.5741 292.459C33.5741 291.661 33.4488 290.889 33.1968 290.142C32.9448 289.395 32.5901 288.735 32.1288 288.162C31.6688 287.59 31.1048 287.134 30.4368 286.795C29.7675 286.457 29.0168 286.287 28.1835 286.287C27.3155 286.287 26.5435 286.465 25.8661 286.821C25.1888 287.178 24.6248 287.646 24.1741 288.227C23.7221 288.81 23.3781 289.469 23.1448 290.207C22.9101 290.945 22.7928 291.695 22.7928 292.459ZM28.1581 301.835C26.8035 301.835 25.5755 301.57 24.4728 301.041C23.3701 300.511 22.4248 299.809 21.6341 298.931C20.8435 298.054 20.2315 297.051 19.7981 295.923C19.3635 294.794 19.1475 293.641 19.1475 292.459C19.1475 291.227 19.3768 290.046 19.8368 288.918C20.2968 287.79 20.9315 286.791 21.7381 285.923C22.5448 285.054 23.5048 284.365 24.6168 283.851C25.7275 283.341 26.9341 283.083 28.2368 283.083C29.5728 283.083 30.7928 283.357 31.8955 283.903C32.9968 284.451 33.9395 285.167 34.7208 286.053C35.5021 286.938 36.1101 287.946 36.5435 289.074C36.9781 290.203 37.1955 291.349 37.1955 292.511C37.1955 293.745 36.9688 294.921 36.5181 296.041C36.0661 297.161 35.4408 298.15 34.6435 299.01C33.8448 299.869 32.8888 300.555 31.7781 301.067C30.6661 301.579 29.4595 301.835 28.1581 301.835Z" fill="#373535"/>
<path d="M56.4933 301.705V289.465L51.7267 298.579H49.7733L45.008 289.465V301.705H41.4133V283.214H45.2693L50.7373 293.735L56.2587 283.214H60.0867V301.705H56.4933Z" fill="#373535"/>
<path d="M78.2388 298.554V301.704H65.4001V283.214H78.0041V286.366H68.9935V290.819H76.7801V293.735H68.9935V298.554H78.2388Z" fill="#373535"/>
<path d="M86.1047 292.355H90.61C90.9393 292.355 91.2473 292.276 91.534 292.12C91.8207 291.964 92.0687 291.752 92.2767 291.483C92.4847 291.214 92.65 290.896 92.7713 290.532C92.8927 290.167 92.954 289.776 92.954 289.36C92.954 288.927 92.8833 288.527 92.7447 288.162C92.606 287.798 92.4193 287.48 92.186 287.212C91.9513 286.943 91.682 286.734 91.378 286.587C91.074 286.439 90.766 286.366 90.454 286.366H86.1047V292.355ZM82.51 301.704V283.214H90.6887C91.538 283.214 92.3247 283.392 93.0447 283.747C93.7647 284.104 94.386 284.572 94.9073 285.154C95.4273 285.736 95.8353 286.395 96.1313 287.134C96.426 287.871 96.574 288.614 96.574 289.36C96.574 290.558 96.274 291.648 95.6753 292.628C95.0767 293.61 94.2647 294.318 93.2407 294.751L97.4593 301.704H93.422L89.646 295.506H86.1047V301.704H82.51Z" fill="#373535"/>
<path d="M100.167 292.329C100.167 291.201 100.371 290.085 100.779 288.982C101.187 287.881 101.782 286.894 102.563 286.026C103.345 285.158 104.299 284.456 105.429 283.917C106.557 283.38 107.841 283.109 109.282 283.109C110.983 283.109 112.455 283.484 113.697 284.229C114.938 284.976 115.862 285.949 116.471 287.146L113.71 289.048C113.467 288.526 113.171 288.089 112.825 287.733C112.477 287.377 112.103 287.094 111.705 286.886C111.305 286.678 110.889 286.525 110.454 286.43C110.021 286.334 109.595 286.288 109.178 286.288C108.275 286.288 107.49 286.469 106.822 286.834C106.153 287.198 105.598 287.672 105.155 288.253C104.711 288.836 104.378 289.496 104.151 290.233C103.926 290.97 103.813 291.704 103.813 292.433C103.813 293.249 103.943 294.034 104.203 294.79C104.465 295.545 104.834 296.209 105.311 296.782C105.789 297.356 106.362 297.816 107.03 298.162C107.698 298.51 108.431 298.684 109.23 298.684C109.647 298.684 110.081 298.632 110.533 298.528C110.983 298.424 111.414 298.258 111.822 298.033C112.229 297.806 112.607 297.516 112.954 297.161C113.302 296.804 113.579 296.374 113.787 295.87L116.731 297.564C116.435 298.258 116.015 298.87 115.467 299.4C114.921 299.93 114.305 300.377 113.618 300.741C112.933 301.106 112.199 301.384 111.418 301.574C110.637 301.765 109.873 301.861 109.126 301.861C107.806 301.861 106.601 301.584 105.506 301.028C104.413 300.472 103.471 299.748 102.681 298.853C101.89 297.96 101.274 296.942 100.831 295.805C100.389 294.669 100.167 293.51 100.167 292.329Z" fill="#373535"/>
<path d="M120.61 283.214H124.205V301.705H120.61V283.214Z" fill="#373535"/>
<path d="M138.918 294.569L136.366 287.303L133.71 294.569H138.918ZM134.778 283.214H137.954L144.986 301.705H141.288L139.569 297.095H133.112L131.418 301.705H127.72L134.778 283.214Z" fill="#373535"/>
<path d="M148.476 301.705V283.214H152.07V298.554H161.5V301.705H148.476Z" fill="#373535"/>
<path d="M165.143 283.214H168.737V301.705H165.143V283.214Z" fill="#373535"/>
<path d="M172.906 298.996L183.35 286.366H173.192V283.214H187.49V285.923L177.384 298.554H187.568V301.704H172.906V298.996Z" fill="#373535"/>
<path d="M201.241 294.569L198.688 287.303L196.032 294.569H201.241ZM197.1 283.214H200.276L207.309 301.705H203.611L201.892 297.095H195.433L193.74 301.705H190.043L197.1 283.214Z" fill="#373535"/>
<path d="M223.013 292.433C223.013 291.548 222.891 290.732 222.649 289.985C222.405 289.238 222.049 288.597 221.581 288.058C221.112 287.52 220.535 287.102 219.849 286.808C219.163 286.513 218.385 286.365 217.517 286.365H214.392V298.553H217.517C218.403 298.553 219.189 298.397 219.875 298.085C220.56 297.772 221.133 297.342 221.595 296.796C222.053 296.248 222.405 295.601 222.649 294.854C222.891 294.109 223.013 293.301 223.013 292.433ZM210.799 301.705V283.213H217.517C219.028 283.213 220.352 283.457 221.489 283.942C222.627 284.429 223.577 285.089 224.341 285.922C225.104 286.756 225.677 287.733 226.06 288.852C226.441 289.972 226.633 291.166 226.633 292.433C226.633 293.84 226.42 295.112 225.995 296.248C225.569 297.385 224.957 298.358 224.159 299.165C223.36 299.973 222.401 300.598 221.281 301.041C220.161 301.484 218.907 301.705 217.517 301.705H210.799Z" fill="#373535"/>
<path d="M233.43 292.459C233.43 293.258 233.551 294.031 233.794 294.777C234.038 295.523 234.39 296.183 234.849 296.757C235.309 297.33 235.874 297.79 236.542 298.137C237.211 298.485 237.97 298.658 238.821 298.658C239.689 298.658 240.458 298.481 241.126 298.125C241.794 297.767 242.358 297.294 242.819 296.705C243.279 296.114 243.626 295.45 243.861 294.711C244.095 293.974 244.213 293.223 244.213 292.459C244.213 291.661 244.086 290.889 243.835 290.142C243.582 289.395 243.227 288.735 242.767 288.162C242.306 287.59 241.742 287.134 241.074 286.795C240.405 286.457 239.654 286.287 238.821 286.287C237.954 286.287 237.181 286.465 236.503 286.821C235.826 287.178 235.262 287.646 234.81 288.227C234.358 288.81 234.015 289.469 233.782 290.207C233.547 290.945 233.43 291.695 233.43 292.459ZM238.794 301.835C237.441 301.835 236.213 301.57 235.11 301.041C234.007 300.511 233.062 299.809 232.271 298.931C231.481 298.054 230.869 297.051 230.435 295.923C230.002 294.794 229.785 293.641 229.785 292.459C229.785 291.227 230.014 290.046 230.474 288.918C230.934 287.79 231.569 286.791 232.375 285.923C233.182 285.054 234.142 284.365 235.253 283.851C236.363 283.341 237.57 283.083 238.873 283.083C240.21 283.083 241.43 283.357 242.533 283.903C243.634 284.451 244.577 285.167 245.358 286.053C246.139 286.938 246.746 287.946 247.181 289.074C247.615 290.203 247.833 291.349 247.833 292.511C247.833 293.745 247.606 294.921 247.155 296.041C246.703 297.161 246.078 298.15 245.281 299.01C244.481 299.869 243.526 300.555 242.415 301.067C241.303 301.579 240.098 301.835 238.794 301.835Z" fill="#373535"/>
<path d="M255.645 292.355H260.15C260.481 292.355 260.788 292.276 261.076 292.12C261.362 291.964 261.61 291.752 261.818 291.483C262.026 291.214 262.19 290.896 262.313 290.532C262.434 290.167 262.496 289.776 262.496 289.36C262.496 288.927 262.425 288.527 262.286 288.162C262.148 287.798 261.961 287.48 261.728 287.212C261.493 286.943 261.224 286.734 260.918 286.587C260.616 286.439 260.306 286.366 259.994 286.366H255.645V292.355ZM252.052 301.704V283.214H260.229C261.08 283.214 261.865 283.392 262.586 283.747C263.306 284.104 263.928 284.572 264.449 285.154C264.969 285.736 265.377 286.395 265.673 287.134C265.966 287.871 266.116 288.614 266.116 289.36C266.116 290.558 265.816 291.648 265.217 292.628C264.617 293.61 263.805 294.318 262.782 294.751L267.001 301.704H262.964L259.186 295.506H255.645V301.704H252.052Z" fill="#373535"/>
<path d="M279.945 294.569L277.391 287.303L274.735 294.569H279.945ZM275.803 283.214H278.979L286.013 301.705H282.314L280.595 297.095H274.137L272.443 301.705H268.746L275.803 283.214Z" fill="#373535"/>
<path d="M82.2602 69.4464C83.7296 68.5744 85.2136 67.7264 86.6509 66.805C86.8589 66.669 86.8416 66.181 87.2082 64.817C84.8296 66.0264 83.1122 66.897 81.3962 67.769C81.6842 68.329 81.9722 68.8877 82.2602 69.4464Z" fill="#B44638"/>
<path d="M65.1478 78.7749C65.1038 79.1149 65.0611 79.4563 65.0171 79.7963C74.0264 84.2189 81.6411 91.6109 92.6958 91.8216C90.2518 90.2523 87.9144 88.4736 85.3398 87.1589C79.6278 84.2403 73.8144 81.5123 67.9891 78.8256C67.2024 78.4616 66.1024 78.7749 65.1478 78.7749Z" fill="#B44638"/>
<path d="M97.222 73.8304C96.6873 74.0798 95.2513 72.4024 94.7166 71.9851C94.6793 68.4331 96.2713 67.1984 98.4606 67.5678C99.6713 67.7718 100.65 69.3491 101.731 70.3078C100.254 71.5371 98.9073 73.0464 97.222 73.8304ZM96.802 62.7184C94.1046 62.8251 91.026 67.2864 91.0713 71.0224C91.11 74.1944 94.314 76.7784 98.234 76.7998C102.002 76.8198 104.742 74.1011 104.678 70.4024C104.614 66.7691 100.321 62.5798 96.802 62.7184Z" fill="#B44638"/>
<path d="M134.78 67.3245C135.266 67.2472 135.753 67.1725 136.24 67.0979C136.072 65.3859 135.905 63.6739 135.738 61.9619C134.944 62.1045 133.708 61.9832 133.432 62.4392C132.206 64.4699 132.824 66.1592 134.78 67.3245Z" fill="#B44638"/>
<path d="M97.2669 130.555C96.7309 131.462 95.6069 132.503 95.7789 133.247C96.1629 134.91 97.1909 136.424 97.9576 137.999C98.3189 137.958 98.6803 137.916 99.0403 137.876C99.4323 136.896 100.379 135.702 100.1 134.98C99.4829 133.38 98.2483 132.015 97.2669 130.555Z" fill="#B44638"/>
<path d="M103.864 132.11C104.426 131.216 105.519 130.262 105.423 129.448C105.287 128.307 104.266 127.274 103.624 126.194C103.263 126.244 102.902 126.295 102.542 126.347C102.204 127.184 101.4 128.19 101.628 128.823C102.062 130.031 103.086 131.026 103.864 132.11Z" fill="#B44638"/>
<path d="M134.589 83.7451C135.254 84.0104 136.414 83.0251 137.901 82.3531C135.86 80.5144 135.152 79.4251 134.264 79.2504C133.736 79.1464 132.234 80.7264 132.374 81.1277C132.74 82.1691 133.618 83.3584 134.589 83.7451Z" fill="#B44638"/>
<path d="M105.603 78.7854C103.405 80.4201 103.459 82.0708 105.93 83.3334C108.205 84.4974 110.603 85.4134 113.334 86.6094C113.151 84.6948 113.203 82.9348 112.783 81.2934C111.671 76.9548 109.167 76.1374 105.603 78.7854Z" fill="#B44638"/>
<path d="M136.028 73.7535C135.515 72.6121 135 71.4695 134.489 70.3281C134.127 70.3855 133.765 70.4415 133.403 70.4988C133.061 71.7228 132.719 72.9481 132.375 74.1721C132.636 74.4455 132.895 74.7188 133.155 74.9908C134.112 74.5775 135.069 74.1668 136.028 73.7535Z" fill="#B44638"/>
<path d="M208.928 129.261C204.216 131.103 199.249 131.484 194.052 130.9C193.944 128.764 193.678 126.896 193.842 125.065C193.908 124.317 194.833 123.151 195.502 123.041C198.458 122.571 201.478 122.504 204.45 122.121C207.289 121.756 209.517 122.747 211.42 124.741C211.437 125.067 211.453 125.393 211.469 125.72C210.637 126.939 210.064 128.817 208.928 129.261ZM211.022 136.74C210.806 138.993 209.452 140.353 207.321 140.62C202.837 141.18 198.329 141.535 193.558 141.997C193.473 140.343 193.385 139.301 193.374 138.263C193.324 132.663 193.325 132.537 198.932 132.323C201.968 132.207 205.066 132.36 208.056 132.865C209.817 133.163 211.237 134.536 211.022 136.74V136.74ZM205.253 153.375C203.714 153.505 202.156 153.4 200.604 153.403C200.604 153.352 200.601 153.301 200.598 153.251C198.968 153.332 197.341 153.423 195.709 153.495C194.442 153.551 193.066 153.617 193.13 151.796C193.225 149.184 191.964 145.176 194.744 144.448C198.852 143.375 203.442 144.015 207.82 144.173C209.624 144.24 210.597 145.521 210.674 147.504C210.8 150.781 208.826 153.077 205.253 153.375V153.375ZM192.644 115.768C192.444 114.424 192.936 113.565 194.334 113.297C196.964 112.797 199.593 112.276 202.225 111.764C202.233 111.827 202.246 111.889 202.258 111.951C203.153 111.905 204.056 111.781 204.945 111.832C207.329 111.967 209.401 113.752 209.572 115.733C209.78 118.159 208.601 119.512 205.696 120.124C203.549 120.576 201.409 121.125 199.234 121.393C194.225 122.009 193.404 121.305 192.728 116.251C192.708 116.088 192.666 115.929 192.644 115.768V115.768ZM187.565 98.8827C177.616 98.396 168.466 95.368 160.169 89.8853C159.388 89.3693 158.916 88.0013 158.789 86.9707C158.638 85.7147 159.01 84.3987 159.278 82.0093C168.406 83.1227 177.544 83.7867 186.482 85.4907C191.964 86.536 193.613 90.444 192.145 95.3067C191.45 97.608 190.06 99.0067 187.565 98.8827V98.8827ZM191.242 126.639L191.372 129.187C184.962 129.511 178.705 129.871 172.44 130.116C172.269 130.123 172.098 130.127 171.928 130.129C172.084 129.407 172.23 128.683 172.362 127.964C172.388 127.837 172.406 127.712 172.429 127.587L191.242 126.639ZM172.9 124.197C177.872 123.667 182.852 123.189 187.841 122.84C188.894 122.767 190.709 121.603 190.906 123.747C190.946 124.199 189.026 125.215 187.945 125.321C182.85 125.828 177.732 126.129 172.62 126.452C172.736 125.687 172.83 124.935 172.9 124.197V124.197ZM190.368 121.299C184.585 121.684 178.81 121.972 173.037 122.293C173.066 121.688 173.076 121.092 173.074 120.507C173.109 120.501 173.146 120.497 173.18 120.492C178.273 119.84 183.366 119.193 188.456 118.536C190.188 118.312 190.885 118.944 190.368 121.299V121.299ZM177.458 118.737C175.974 118.915 174.441 119.532 173.028 118.863C172.976 117.92 172.886 117.005 172.756 116.116C178.662 115.396 184.134 114.729 189.745 114.047C189.96 115.205 190.141 116.191 190.353 117.344C185.861 117.825 181.654 118.239 177.458 118.737ZM190.348 133.104C188.99 133.313 187.596 133.293 186.216 133.363C181.117 133.62 176.013 133.876 170.914 134.133C171.168 133.287 171.392 132.428 171.6 131.567L187.893 130.436C188.77 130.377 189.712 130.399 190.529 130.665C190.989 130.815 191.537 131.544 191.532 132.008C191.526 132.395 190.816 133.035 190.348 133.104V133.104ZM188.586 145.984C180.542 146.007 172.497 145.955 164.453 145.879C165.12 145.192 165.752 144.44 166.352 143.629C166.84 143.605 167.336 143.625 167.822 143.623C174.67 143.589 181.521 143.507 188.369 143.612C189.42 143.629 190.457 144.528 191.5 145.021C190.529 145.357 189.561 145.98 188.586 145.984V145.984ZM188.728 151.895C187.945 152.177 186.956 151.979 186.069 151.888C179.94 151.265 173.802 150.657 167.678 149.963C165.277 149.691 162.884 149.337 160.486 148.987C161.268 148.536 162.013 148.021 162.728 147.447C170.05 147.58 177.373 147.728 184.693 147.887C186.153 147.92 187.666 147.844 189.046 148.212C189.686 148.383 190.497 149.533 190.45 150.185C190.402 150.816 189.452 151.629 188.728 151.895V151.895ZM169.28 138.593C169.706 137.644 170.088 136.665 170.426 135.669C176.513 135.324 182.606 135.055 188.698 134.853C189.476 134.828 190.285 135.719 191.08 136.183C190.309 136.671 189.566 137.533 188.768 137.584C182.277 137.999 175.777 138.304 169.28 138.593ZM188.316 139.161C189.165 139.117 190.02 139.155 190.845 139.156C191.042 141.407 190.045 142.124 188.11 142.081C186.074 142.035 184.026 142.308 181.996 142.208C177.072 141.968 172.118 142.647 167.194 142.416C167.658 141.704 168.096 140.948 168.513 140.153C175.11 139.757 181.717 139.484 188.316 139.161V139.161ZM156.249 144.641C157.089 144.691 157.93 144.74 158.768 144.789C158.189 145.328 157.586 145.82 156.966 146.271C156.081 146.211 155.2 146.148 154.318 146.087C153.557 146.036 152.786 146.175 152.02 146.227C151.973 146.536 151.926 146.844 151.88 147.153C152.802 147.329 153.728 147.512 154.652 147.696C150.053 150.055 144.47 150.321 137.91 148.364C118.229 142.489 107.778 130.592 107.641 109.295C107.622 106.424 108.585 103.515 109.297 100.675C110.9 94.292 110.149 92.004 104.728 88.3947C98.6863 84.3733 92.6783 80.288 86.477 76.5253C81.937 73.772 76.9676 72.6467 71.3396 75.5027C72.8516 76.2587 74.3797 76.9813 75.8717 77.772C84.281 82.236 92.7317 86.624 101.012 91.3147C101.945 91.8453 101.892 94.1147 102.296 95.5773C102.013 95.7107 101.733 95.8467 101.45 95.98C101.766 96.08 102.086 96.1707 102.398 96.2787C103.632 96.7147 105.604 96.836 105.954 97.652C106.89 99.836 104.876 100.544 103.258 100.719C99.0557 101.171 94.8223 101.604 90.6077 101.548C89.0397 101.527 87.141 100.467 85.9943 99.2933C80.5663 93.732 73.609 90.792 66.7876 87.58C64.9783 86.7293 63.157 85.9027 61.3677 85.0093C57.441 83.0467 56.9823 81.8867 58.7983 77.872C60.993 73.0133 65.1943 70.772 70.129 69.7947C72.789 69.268 74.6716 68.3867 76.041 65.6987C76.7583 64.2907 77.601 63.1213 78.545 62.148C77.4836 60.2707 76.3076 58.4813 75.3023 56.564C74.5103 55.0547 74.941 53.324 76.6956 52.4213C77.2236 52.1507 78.3223 53.36 78.9383 54.108C80.0757 55.4853 81.049 57.024 82.0917 58.4947C82.3623 58.3107 82.6343 58.1267 82.9063 57.944C82.5783 56.7493 82.2543 55.5533 81.9263 54.36C80.7077 49.94 81.2703 48.9653 86.153 47.3C87.293 50.424 85.745 54.9667 88.8717 57.512C89.1357 54.8373 89.2663 52.5027 89.6183 50.1547C90.3303 45.4053 90.7463 45.096 94.993 45.6773C95.4383 45.7373 95.8943 45.7853 96.3117 45.9107C97.701 46.3347 98.2837 47.0013 97.221 48.956C95.373 52.3507 95.2783 54.1773 96.2903 56.8573C97.7957 54.3093 99.321 51.8813 100.676 49.3773C101.844 47.2147 103.117 46.612 104.868 47.532C105.852 48.048 106.942 48.388 108.22 48.904L103.621 55.0773C107.364 54.372 110.4 50.5613 113.573 52.2013L114.826 53.1333C113.733 54.2026 112.718 55.424 111.526 56.308C109.9 57.5147 108.137 58.4653 106.433 59.528C106.489 59.808 106.546 60.0867 106.602 60.3667C107.673 60.1373 108.752 60.0013 109.813 59.66C111.8 59.02 113.776 58.2453 115.761 57.5587C118.74 56.5267 120.321 57.6787 120.973 60.8093C117.554 61.8093 114.316 62.7533 111.076 63.7013C113.974 64.136 116.925 63.9907 119.848 63.9827C123.493 63.9733 123.998 64.7733 123.134 68.7427C120.398 68.9533 117.662 69.1627 114.928 69.372C115.176 69.7453 115.414 70.1253 115.645 70.5107C116.121 70.5987 116.589 70.6987 117.038 70.844C119.029 71.488 121.149 71.972 122.852 73.0613C123.545 73.504 123.289 75.3467 123.465 76.552C122.408 76.9547 121.284 77.6853 120.312 77.68C119.756 77.6787 119.213 77.6093 118.67 77.5093C120.142 82.636 120.19 87.9813 118.593 92.3013C116.174 98.8453 114.412 105.517 114.653 112.635C115.141 127.041 125.594 139.309 139.57 141.608C144.622 142.437 148.793 140.595 152.526 137.359C158.6 132.095 163.153 126.311 162.27 117.42C161.334 107.98 154.046 99.0053 144.782 97.1187C139.76 96.0947 135.488 97.956 131.646 100.952C126.288 105.132 123.776 115.599 126.662 121.236C129.84 127.436 139.122 131.427 145.752 129.473C149.912 128.247 152.269 125.497 153.004 121.243C153.884 116.143 152.636 111.817 148.265 108.807C144.478 106.196 140.334 105.851 136.2 107.933C133.44 109.324 132.952 113.395 134.936 116.689C137.192 120.436 141.7 121.905 144.536 119.745C145.104 119.313 145.413 118.545 145.766 118.036C143.653 117.888 141.708 117.953 139.878 117.528C139.108 117.348 138.124 116.165 138.064 115.375C138.001 114.567 138.748 113.276 139.494 112.904C142.26 111.525 145.264 111.253 147.877 113.132C150.401 114.947 150.53 117.721 149.76 120.505C148.949 123.433 147.706 126.511 144.476 127.015C139.872 127.731 135.266 127.352 131.809 123.372C127.344 118.233 126.621 110.64 130.234 105.727C134.11 100.456 140.806 98.86 147.362 101.645C158.426 106.344 162.63 119.732 156.052 129.795C151.964 136.045 145.933 138.013 138.798 136.492C130.397 134.704 122.558 131.407 120.237 122.293C117.848 112.908 120.069 103.936 126.552 96.5173C131.674 90.6533 141.996 89.1827 150.917 92.9107C160.288 96.8267 167.504 104.281 168.558 115.483C168.544 115.483 168.528 115.484 168.513 115.485C168.274 116.155 168.014 116.815 167.74 117.469C168.044 117.815 168.362 118.064 168.692 118.239C168.692 118.78 168.681 119.328 168.654 119.884C168.042 119.932 167.414 119.989 166.592 120.061C166.328 120.644 166.061 121.225 165.798 121.811C166.14 121.717 166.522 121.677 166.834 121.675C167.4 121.671 167.965 121.669 168.528 121.667C168.469 122.288 168.39 122.92 168.296 123.56C168.014 123.576 167.734 123.592 167.456 123.607C166.604 123.656 165.784 124.247 164.949 124.587C165.01 124.875 165.072 125.163 165.133 125.451C166.056 125.572 166.977 125.812 167.898 125.799H167.9C167.826 126.169 167.742 126.544 167.657 126.921H163.718C163.44 127.643 163.156 128.361 162.864 129.075C164.301 129.232 165.668 129.392 167.026 129.437C166.898 129.911 166.765 130.385 166.625 130.857C165.488 130.877 164.348 130.899 163.209 130.915C161.662 130.936 160.912 131.417 161.421 133.384H165.813C165.634 133.892 165.445 134.395 165.248 134.893C163.684 134.903 162.122 134.913 160.558 134.933C159.75 134.945 158.953 135.973 158.152 136.528C158.297 136.815 158.446 137.097 158.592 137.384C159.877 137.511 161.161 137.74 162.446 137.748C162.95 137.752 163.452 137.753 163.956 137.756C163.768 138.123 163.574 138.484 163.372 138.84C163.289 138.988 163.2 139.131 163.113 139.277C161.888 139.289 160.662 139.304 159.437 139.325C158.685 139.337 157.992 139.296 157.337 139.181C157.017 139.627 156.689 140.064 156.356 140.495C158.116 141 159.894 141.295 161.682 141.469C161.389 141.875 161.086 142.264 160.778 142.64C160.448 142.64 160.122 142.659 159.802 142.723C157.868 143.107 156.161 143.016 154.624 142.565C154.192 143.044 153.749 143.512 153.289 143.963C154.113 143.968 155.29 144.583 156.249 144.641V144.641ZM128.141 163.065C126.037 161.049 124.237 158.671 122.536 156.287C120.152 152.948 117.984 149.452 115.958 145.739C121.992 148.497 123.998 155.679 130.222 159.392C127.612 152.664 122.232 148.944 118.048 143.648C118.614 143.124 119.181 142.6 119.824 142.005C126.334 148.875 134.721 153.76 136.66 163.911C133.554 165.491 130.589 165.407 128.141 163.065ZM126.605 175.449C124.032 176.872 121.905 176.119 119.613 172.664C115.329 166.213 111.152 159.693 106.929 153.203C107.13 152.887 107.334 152.569 107.536 152.253C109.024 153.033 110.974 153.455 111.914 154.664C114.652 158.183 116.917 162.065 119.506 165.708C120.945 167.733 122.658 169.56 124.25 171.477C124.65 171.251 125.05 171.024 125.452 170.796C125.146 169.56 125.162 168.097 124.48 167.124C121.18 162.412 117.7 157.825 114.26 153.213C113.625 152.364 112.78 151.656 112.236 150.757C111.952 150.289 112.112 149.551 112.07 148.932C112.765 148.991 113.814 148.775 114.102 149.149C118.865 155.276 123.761 161.323 128.118 167.733C130.208 170.807 129.122 174.057 126.605 175.449V175.449ZM99.9783 146.845C99.657 146.219 100.316 144.703 100.978 144.031C103.456 141.524 106.12 139.199 108.714 136.808C110.968 134.733 112.736 135.879 114.456 137.639C116.565 139.797 114.289 140.712 113.221 141.853C111.452 143.745 109.628 145.608 107.658 147.284C106.454 148.308 104.936 148.96 103.121 150.041C101.912 148.879 100.593 148.043 99.9783 146.845V146.845ZM94.797 138.948C93.669 136.928 92.8983 134.708 91.6916 131.952C93.1303 130.081 94.5703 128.183 96.0476 126.317C96.333 125.957 96.7463 125.68 97.1437 125.433C105.37 120.319 105.212 120.955 109.753 129.301C110.262 130.24 109.788 132.415 108.978 133.241C106.532 135.736 103.758 137.933 100.99 140.091C98.073 142.363 96.5557 142.093 94.797 138.948V138.948ZM90.0636 106.077C95.1996 104.939 100.369 103.791 105.598 102.628C106.301 107.828 105.481 108.917 101.317 109.572C99.2396 109.9 97.209 110.541 95.1263 110.821C91.637 111.291 90.4796 110.204 90.0636 106.077ZM94.0557 114.856C96.0063 114.103 97.9983 113.279 100.042 113.003C101.261 112.839 102.616 113.676 103.908 114.061C103.409 115.607 103.365 117.94 102.324 118.539C99.8543 119.96 96.9183 120.58 94.157 121.48C93.1663 121.803 92.1357 121.999 90.9277 122.3C89.233 116.759 89.2183 116.723 94.0557 114.856ZM128.326 64.088C128.464 59.6067 132.482 56.6387 136.79 58.0947C137.738 58.416 138.849 59.7933 138.961 60.788C139.441 65.1067 139.578 69.4613 139.841 73.8013C139.796 73.8053 139.752 73.8093 139.708 73.8147C139.708 76.7613 139.598 79.712 139.74 82.6507C139.876 85.528 138.601 87.052 135.841 87.5307C133.042 88.0133 130.396 87.684 129.385 84.7067C128.532 82.196 128.074 79.4533 127.993 76.796C127.864 72.5667 128.197 68.3227 128.326 64.088V64.088ZM141.042 57.0147H144.689V84.6173H141.042V57.0147ZM154.238 55.0973V85.6973C149.51 86.7 148.288 85.804 148.265 81.464C148.225 74.256 148.225 67.0467 148.25 59.8373C148.268 54.6693 148.785 54.2733 154.238 55.0973V55.0973ZM185.032 73.104C182.126 72.7213 179.192 72.492 176.261 72.372C171.204 72.164 166.141 72.1133 161.082 71.928C158.745 71.8427 158.501 70.42 159.281 67.872C168.845 68.4533 178.474 69.144 188.113 69.568C191.793 69.732 192.609 71.932 192.87 74.8653C193.157 78.0707 192.053 80.5093 188.734 81.316C187.169 81.6987 185.454 81.86 183.858 81.68C176.481 80.848 169.122 79.8467 161.752 78.9307C159.406 78.64 157.806 77.9147 159.426 74.6627C163.649 75.2587 168.029 75.924 172.422 76.4813C175.696 76.8973 178.984 77.2453 182.274 77.4693C183.281 77.5386 184.452 77.3173 185.308 76.8173C186.109 76.352 186.59 75.3413 187.213 74.572C186.486 74.0613 185.81 73.208 185.032 73.104V73.104ZM158.957 53.524C168.921 52.5186 178.754 51.908 188.522 54.1533C190.065 54.508 192.064 55.2147 192.752 56.3987C193.902 58.3707 194.781 60.8987 194.645 63.124C194.486 65.7387 191.868 66.5387 189.525 66.4253C179.992 65.9653 170.462 65.376 160.941 64.716C160.316 64.6747 159.762 63.64 159.176 63.0667C159.828 62.4253 160.502 61.212 161.124 61.2373C165.342 61.4187 169.552 61.8187 173.756 62.2333C176.794 62.5333 179.837 63.3373 182.848 63.2107C184.892 63.1253 186.882 61.8187 188.896 61.06C188.789 60.4347 188.68 59.812 188.572 59.1867C178.978 56.2653 169.074 58.0893 158.957 58.2187V53.524ZM209.394 -6.21863e-06H72.7437C55.9757 -6.21863e-06 42.3823 12.8853 42.3823 28.7787V179.883C42.3823 195.776 55.9757 208.663 72.7437 208.663H209.394C226.162 208.663 239.754 195.776 239.754 179.883V28.7787C239.754 12.8853 226.162 -6.21863e-06 209.394 -6.21863e-06" fill="#B44638"/>
<path d="M186.356 92.0791C178.687 87.1378 169.651 87.6645 161.181 85.9285C168.855 90.8525 177.313 92.6418 186.356 92.0791Z" fill="#B44638"/>
</svg>
