<svg width="243" height="249" viewBox="0 0 243 249" fill="none" xmlns="http://www.w3.org/2000/svg">
<path d="M0 249H243V5.72205e-06H0V249Z" fill="#B44638"/>
<path d="M59.036 87.2011C60.5827 86.2824 62.148 85.3891 63.664 84.4158C63.8827 84.2744 63.864 83.7598 64.2494 82.3211C61.7414 83.5958 59.9347 84.5131 58.124 85.4331C58.4267 86.0224 58.7307 86.6118 59.036 87.2011Z" fill="white"/>
<path d="M40.9971 97.0344C40.9504 97.3931 40.9064 97.7518 40.8584 98.1104C50.3571 102.773 58.3824 110.564 70.0357 110.785C67.4584 109.132 64.9944 107.257 62.2811 105.872C56.2597 102.794 50.1331 99.9198 43.9917 97.0878C43.1611 96.7038 42.0024 97.0344 40.9971 97.0344Z" fill="white"/>
<path d="M74.8073 91.8223C74.2419 92.085 72.7286 90.317 72.1646 89.877C72.1246 86.1316 73.8046 84.8316 76.1126 85.221C77.3886 85.4356 78.4193 87.0983 79.5593 88.109C78.0019 89.405 76.5806 90.9956 74.8073 91.8223ZM74.3619 80.109C71.5206 80.2223 68.2766 84.9236 68.3233 88.8623C68.3619 92.2063 71.7393 94.9303 75.8726 94.953C79.8459 94.973 82.7313 92.1076 82.6646 88.209C82.5993 84.3783 78.0726 79.9623 74.3619 80.109Z" fill="white"/>
<path d="M114.396 84.9641C114.909 84.8827 115.423 84.8041 115.935 84.7254C115.757 82.9214 115.581 81.1161 115.407 79.3121C114.568 79.4627 113.265 79.3334 112.975 79.8161C111.683 81.9561 112.333 83.7361 114.396 84.9641Z" fill="white"/>
<path d="M74.8543 151.614C74.2889 152.57 73.1049 153.667 73.2863 154.451C73.6903 156.203 74.7729 157.802 75.5809 159.461C75.9609 159.418 76.3436 159.374 76.7236 159.331C77.1356 158.299 78.1356 157.039 77.8409 156.279C77.1876 154.591 75.8876 153.153 74.8543 151.614Z" fill="white"/>
<path d="M81.8073 153.253C82.398 152.312 83.5526 151.305 83.45 150.448C83.3073 149.245 82.2313 148.156 81.5553 147.016C81.174 147.069 80.794 147.124 80.414 147.179C80.058 148.061 79.2113 149.12 79.45 149.788C79.9086 151.061 80.9873 152.111 81.8073 153.253Z" fill="white"/>
<path d="M114.193 102.273C114.893 102.553 116.117 101.515 117.685 100.805C115.534 98.8674 114.786 97.7194 113.851 97.5354C113.294 97.4247 111.711 99.0914 111.859 99.5141C112.245 100.613 113.171 101.865 114.193 102.273Z" fill="white"/>
<path d="M83.6404 97.0449C81.3231 98.7676 81.3804 100.509 83.9844 101.84C86.3831 103.066 88.9111 104.032 91.7884 105.293C91.5964 103.274 91.6511 101.418 91.2084 99.6889C90.0364 95.1156 87.3978 94.2529 83.6404 97.0449Z" fill="white"/>
<path d="M115.711 91.7415C115.17 90.5388 114.628 89.3335 114.088 88.1308C113.706 88.1908 113.326 88.2508 112.943 88.3108C112.583 89.6015 112.222 90.8921 111.859 92.1828C112.135 92.4708 112.408 92.7588 112.683 93.0455C113.69 92.6095 114.7 92.1761 115.711 91.7415Z" fill="white"/>
<path d="M192.552 150.251C187.585 152.192 182.352 152.595 176.872 151.977C176.757 149.727 176.479 147.757 176.651 145.828C176.721 145.04 177.695 143.809 178.401 143.695C181.519 143.199 184.7 143.128 187.833 142.724C190.825 142.339 193.175 143.384 195.18 145.487C195.197 145.831 195.213 146.173 195.232 146.517C194.355 147.803 193.749 149.783 192.552 150.251ZM194.76 158.133C194.533 160.508 193.104 161.943 190.859 162.223C186.133 162.815 181.38 163.187 176.352 163.675C176.263 161.932 176.169 160.833 176.159 159.739C176.104 153.836 176.107 153.704 182.016 153.479C185.216 153.356 188.481 153.516 191.633 154.049C193.489 154.363 194.987 155.811 194.76 158.133V158.133ZM188.68 175.668C187.057 175.805 185.413 175.695 183.779 175.697C183.779 175.644 183.776 175.591 183.773 175.537C182.055 175.623 180.339 175.719 178.62 175.795C177.284 175.853 175.833 175.924 175.901 174.004C176 171.251 174.672 167.025 177.601 166.259C181.932 165.127 186.771 165.801 191.385 165.969C193.287 166.04 194.312 167.389 194.393 169.48C194.525 172.935 192.445 175.355 188.68 175.668V175.668ZM175.388 136.028C175.177 134.612 175.695 133.705 177.169 133.424C179.943 132.896 182.713 132.347 185.487 131.808C185.497 131.873 185.511 131.94 185.524 132.003C186.467 131.956 187.416 131.825 188.355 131.879C190.867 132.02 193.052 133.903 193.232 135.991C193.451 138.548 192.208 139.973 189.145 140.619C186.883 141.096 184.628 141.675 182.336 141.957C177.055 142.607 176.191 141.864 175.476 136.536C175.456 136.365 175.412 136.199 175.388 136.028V136.028ZM170.033 118.229C159.547 117.716 149.904 114.524 141.156 108.745C140.333 108.201 139.836 106.76 139.703 105.672C139.544 104.349 139.935 102.961 140.219 100.444C149.841 101.616 159.471 102.317 168.893 104.112C174.672 105.215 176.409 109.335 174.861 114.46C174.131 116.887 172.664 118.36 170.033 118.229ZM173.912 147.487L174.047 150.172C167.292 150.513 160.695 150.892 154.091 151.152C153.912 151.16 153.732 151.164 153.552 151.167C153.716 150.404 153.869 149.641 154.011 148.884C154.036 148.749 154.057 148.617 154.08 148.485L173.912 147.487ZM154.576 144.912C159.817 144.353 165.068 143.851 170.325 143.483C171.435 143.405 173.349 142.177 173.557 144.439C173.599 144.915 171.576 145.985 170.435 146.099C165.065 146.632 159.669 146.949 154.281 147.289C154.404 146.483 154.503 145.691 154.576 144.912V144.912ZM172.989 141.857C166.893 142.264 160.807 142.567 154.721 142.905C154.752 142.268 154.763 141.64 154.76 141.023C154.797 141.017 154.836 141.012 154.872 141.007C160.24 140.32 165.609 139.639 170.973 138.945C172.8 138.709 173.533 139.376 172.989 141.857V141.857ZM159.383 139.159C157.817 139.344 156.2 139.996 154.711 139.289C154.656 138.296 154.563 137.332 154.424 136.393C160.651 135.636 166.419 134.933 172.333 134.213C172.56 135.436 172.749 136.473 172.973 137.688C168.24 138.196 163.804 138.632 159.383 139.159ZM172.968 154.301C171.536 154.521 170.068 154.501 168.612 154.573C163.237 154.844 157.859 155.115 152.484 155.387C152.749 154.493 152.987 153.589 153.205 152.681L170.38 151.489C171.304 151.428 172.297 151.449 173.159 151.731C173.643 151.888 174.221 152.657 174.216 153.145C174.211 153.553 173.461 154.227 172.968 154.301ZM171.112 167.877C162.633 167.901 154.151 167.847 145.672 167.768C146.375 167.043 147.041 166.251 147.675 165.396C148.188 165.371 148.711 165.391 149.224 165.389C156.443 165.353 163.664 165.267 170.883 165.377C171.989 165.395 173.083 166.343 174.183 166.863C173.159 167.217 172.137 167.873 171.112 167.877V167.877ZM171.26 174.108C170.435 174.407 169.393 174.196 168.459 174.101C161.997 173.445 155.528 172.804 149.073 172.072C146.541 171.784 144.019 171.412 141.492 171.044C142.315 170.567 143.101 170.025 143.855 169.42C151.573 169.56 159.292 169.716 167.008 169.884C168.547 169.919 170.14 169.837 171.596 170.225C172.271 170.405 173.125 171.619 173.076 172.307C173.025 172.971 172.024 173.829 171.26 174.108V174.108ZM150.76 160.087C151.211 159.087 151.612 158.056 151.969 157.004C158.385 156.641 164.807 156.357 171.229 156.145C172.049 156.119 172.901 157.056 173.74 157.547C172.927 158.06 172.143 158.969 171.301 159.023C164.461 159.46 157.609 159.781 150.76 160.087V160.087ZM170.825 160.685C171.721 160.64 172.623 160.679 173.492 160.68C173.7 163.053 172.648 163.809 170.609 163.764C168.464 163.715 166.304 164.003 164.164 163.897C158.973 163.645 153.752 164.36 148.563 164.116C149.052 163.365 149.513 162.569 149.953 161.732C156.907 161.315 163.869 161.027 170.825 160.685V160.685ZM137.025 166.461C137.912 166.515 138.797 166.567 139.68 166.619C139.071 167.187 138.435 167.705 137.781 168.18C136.849 168.116 135.919 168.051 134.989 167.987C134.188 167.932 133.375 168.079 132.568 168.133L132.419 169.111C133.393 169.296 134.367 169.489 135.341 169.681C130.495 172.168 124.609 172.449 117.695 170.387C96.948 164.195 85.932 151.653 85.7893 129.205C85.768 126.177 86.784 123.112 87.5333 120.117C89.224 113.391 88.432 110.979 82.716 107.173C76.3493 102.936 70.0187 98.628 63.4787 94.664C58.6947 91.7613 53.456 90.5733 47.524 93.5853C49.1173 94.3813 50.7293 95.144 52.3013 95.9773C61.164 100.683 70.0733 105.308 78.8 110.252C79.784 110.811 79.7267 113.204 80.1533 114.745C79.8573 114.887 79.5627 115.029 79.2627 115.169C79.596 115.276 79.932 115.371 80.2627 115.485C81.5627 115.945 83.64 116.072 84.0107 116.933C84.9973 119.233 82.8747 119.981 81.1693 120.165C76.74 120.641 72.276 121.099 67.8333 121.039C66.1827 121.016 64.18 119.899 62.9707 118.663C57.2493 112.8 49.916 109.701 42.7267 106.316C40.8173 105.419 38.8987 104.548 37.0133 103.607C32.872 101.537 32.3907 100.315 34.304 96.0813C36.6173 90.9613 41.0467 88.5986 46.2467 87.568C49.052 87.0133 51.036 86.084 52.4787 83.2507C53.2347 81.768 54.1253 80.5347 55.12 79.508C54 77.5293 52.76 75.6427 51.7 73.6213C50.8667 72.0307 51.32 70.208 53.1693 69.256C53.7267 68.9707 54.8853 70.2453 55.5333 71.0333C56.732 72.4853 57.7573 74.108 58.8573 75.6573C59.1427 75.4627 59.4293 75.2707 59.716 75.076C59.3693 73.8173 59.028 72.556 58.6827 71.2987C57.3987 66.64 57.992 65.612 63.1373 63.8573C64.3413 67.1507 62.708 71.9387 66.0053 74.6213C66.2813 71.8013 66.4213 69.34 66.792 66.8667C67.5413 61.86 67.9787 61.5347 72.456 62.1467C72.9267 62.2107 73.4067 62.26 73.8467 62.392C75.3093 62.8387 75.924 63.5427 74.804 65.6027C72.8573 69.1813 72.7573 71.108 73.8227 73.932C75.412 71.2453 77.0187 68.6867 78.4453 66.048C79.6773 63.768 81.0213 63.132 82.864 64.1013C83.904 64.6453 85.052 65.004 86.3987 65.548L81.552 72.056C85.4973 71.312 88.6947 67.2947 92.0413 69.0227L93.3613 70.0053C92.2107 71.1333 91.14 72.42 89.8853 73.352C88.1693 74.624 86.312 75.6267 84.516 76.7467C84.576 77.0413 84.6347 77.3347 84.6947 77.6307C85.8227 77.3893 86.9587 77.2453 88.0787 76.8867C90.172 76.212 92.2547 75.3933 94.3467 74.6693C97.4867 73.5827 99.1533 74.7973 99.8413 78.0973C96.2373 79.1507 92.8227 80.1467 89.4093 81.1453C92.464 81.604 95.5733 81.4507 98.656 81.4427C102.497 81.432 103.031 82.276 102.12 86.4586C99.2347 86.6813 96.352 86.9013 93.468 87.1213C93.732 87.516 93.9813 87.9173 94.2267 88.324C94.7267 88.416 95.2213 88.5213 95.692 88.6733C97.792 89.3533 100.025 89.864 101.823 91.0106C102.552 91.4786 102.284 93.4213 102.468 94.6907C101.355 95.1147 100.169 95.8866 99.1427 95.8813C98.5573 95.8786 97.9867 95.8053 97.4133 95.7C98.9667 101.104 99.016 106.737 97.3333 111.292C94.784 118.189 92.924 125.223 93.18 132.724C93.692 147.911 104.713 160.841 119.445 163.265C124.771 164.14 129.167 162.197 133.101 158.785C139.503 153.236 144.301 147.14 143.372 137.769C142.385 127.819 134.703 118.359 124.937 116.369C119.643 115.291 115.14 117.252 111.091 120.411C105.443 124.817 102.795 135.849 105.839 141.791C109.188 148.328 118.971 152.533 125.961 150.475C130.347 149.181 132.831 146.283 133.604 141.799C134.531 136.423 133.216 131.864 128.609 128.689C124.617 125.939 120.249 125.573 115.891 127.771C112.981 129.235 112.467 133.525 114.56 137C116.937 140.948 121.691 142.497 124.677 140.221C125.276 139.765 125.604 138.955 125.976 138.419C123.747 138.263 121.697 138.332 119.768 137.883C118.956 137.693 117.919 136.445 117.857 135.613C117.789 134.763 118.579 133.4 119.364 133.008C122.279 131.556 125.445 131.269 128.2 133.249C130.861 135.163 130.997 138.087 130.185 141.021C129.331 144.108 128.021 147.351 124.615 147.883C119.763 148.637 114.909 148.237 111.263 144.043C106.557 138.625 105.795 130.621 109.604 125.444C113.691 119.888 120.747 118.205 127.659 121.141C139.32 126.095 143.752 140.207 136.817 150.813C132.508 157.401 126.151 159.476 118.631 157.873C109.773 155.988 101.513 152.512 99.0653 142.905C96.5467 133.013 98.888 123.556 105.721 115.736C111.12 109.556 122 108.004 131.407 111.935C141.281 116.061 148.888 123.92 150 135.725L149.953 135.729C149.7 136.436 149.427 137.131 149.137 137.821C149.459 138.184 149.795 138.447 150.14 138.632C150.14 139.203 150.131 139.78 150.101 140.367C149.456 140.417 148.795 140.477 147.927 140.553C147.648 141.168 147.367 141.78 147.091 142.396C147.451 142.299 147.855 142.256 148.183 142.253C148.779 142.249 149.375 142.248 149.969 142.245C149.907 142.9 149.823 143.565 149.724 144.241C149.427 144.259 149.133 144.275 148.839 144.291C147.94 144.343 147.076 144.964 146.195 145.324L146.391 146.233C147.361 146.363 148.333 146.613 149.304 146.601H149.307C149.229 146.992 149.14 147.388 149.049 147.784H144.899C144.604 148.545 144.304 149.301 143.997 150.055C145.513 150.22 146.953 150.389 148.385 150.437C148.249 150.936 148.109 151.436 147.964 151.933C146.763 151.953 145.563 151.976 144.361 151.993C142.732 152.016 141.94 152.523 142.476 154.597H147.107C146.919 155.132 146.719 155.663 146.511 156.187C144.861 156.197 143.216 156.209 141.568 156.229C140.716 156.241 139.875 157.325 139.031 157.911C139.185 158.212 139.341 158.511 139.495 158.813C140.849 158.945 142.203 159.188 143.557 159.196C144.088 159.2 144.617 159.201 145.148 159.205C144.951 159.591 144.747 159.972 144.533 160.347C144.445 160.503 144.352 160.655 144.26 160.808C142.968 160.821 141.677 160.836 140.385 160.859C139.593 160.872 138.861 160.829 138.172 160.708C137.836 161.176 137.489 161.637 137.137 162.092C138.992 162.624 140.867 162.936 142.752 163.119C142.443 163.547 142.125 163.956 141.8 164.352C141.451 164.352 141.107 164.373 140.771 164.44C138.732 164.844 136.932 164.749 135.312 164.275C134.857 164.779 134.391 165.272 133.907 165.747C134.773 165.753 136.016 166.4 137.025 166.461V166.461ZM107.399 185.883C105.18 183.757 103.281 181.251 101.487 178.737C98.976 175.219 96.6907 171.533 94.5573 167.619C100.916 170.527 103.031 178.097 109.591 182.011C106.839 174.919 101.167 170.999 96.7573 165.415C97.3547 164.864 97.9533 164.311 98.6307 163.684C105.492 170.925 114.333 176.073 116.375 186.775C113.101 188.44 109.976 188.351 107.399 185.883V185.883ZM105.779 198.937C103.065 200.436 100.825 199.641 98.4067 196.001C93.8907 189.201 89.4893 182.329 85.0387 175.487C85.2493 175.153 85.464 174.82 85.6773 174.487C87.2467 175.308 89.3013 175.752 90.2947 177.027C93.1773 180.736 95.5653 184.829 98.2947 188.668C99.812 190.803 101.617 192.728 103.295 194.749C103.716 194.511 104.14 194.272 104.563 194.032C104.24 192.728 104.257 191.187 103.539 190.161C100.06 185.195 96.3907 180.36 92.7653 175.499C92.096 174.603 91.2053 173.856 90.6333 172.909C90.3333 172.416 90.5 171.637 90.4587 170.985C91.1907 171.048 92.2947 170.82 92.5987 171.215C97.62 177.672 102.779 184.047 107.372 190.803C109.576 194.043 108.429 197.469 105.779 198.937V198.937ZM77.7107 168.785C77.372 168.125 78.0653 166.527 78.7653 165.819C81.3773 163.176 84.1853 160.724 86.9187 158.205C89.2947 156.019 91.1587 157.225 92.9707 159.081C95.1947 161.356 92.7973 162.321 91.6693 163.524C89.804 165.517 87.8827 167.481 85.8067 169.248C84.536 170.328 82.9373 171.015 81.024 172.155C79.7493 170.929 78.3587 170.048 77.7107 168.785V168.785ZM72.2493 160.461C71.06 158.333 70.2467 155.993 68.976 153.087C70.492 151.115 72.0107 149.113 73.568 147.147C73.8693 146.769 74.304 146.476 74.724 146.216C83.396 140.825 83.2267 141.495 88.0133 150.292C88.552 151.281 88.052 153.575 87.1973 154.445C84.62 157.076 81.6947 159.392 78.7787 161.667C75.7027 164.06 74.104 163.777 72.2493 160.461V160.461ZM67.26 125.813C72.6747 124.612 78.1227 123.403 83.6347 122.177C84.3747 127.659 83.5133 128.807 79.1227 129.497C76.932 129.843 74.792 130.519 72.596 130.813C68.9187 131.308 67.7 130.163 67.26 125.813V125.813ZM71.468 135.067C73.524 134.273 75.6253 133.404 77.7787 133.112C79.0627 132.94 80.4893 133.823 81.8547 134.228C81.328 135.857 81.2813 138.317 80.1827 138.948C77.58 140.447 74.484 141.1 71.576 142.049C70.5307 142.389 69.4453 142.596 68.172 142.913C66.3853 137.072 66.3693 137.035 71.468 135.067V135.067ZM107.591 81.5533C107.737 76.8293 111.971 73.7013 116.513 75.2346C117.513 75.5733 118.685 77.0267 118.801 78.0747C119.307 82.6267 119.453 87.2173 119.729 91.792C119.683 91.796 119.635 91.8 119.588 91.8053C119.588 94.9107 119.473 98.0213 119.623 101.12C119.765 104.152 118.424 105.759 115.513 106.264C112.565 106.773 109.773 106.425 108.708 103.287C107.807 100.64 107.325 97.7493 107.24 94.948C107.104 90.4907 107.456 86.0173 107.591 81.5533V81.5533ZM120.997 74.0973H124.841V103.192H120.997V74.0973ZM128.593 77.072C128.612 71.624 129.156 71.208 134.907 72.076V104.331C129.921 105.388 128.633 104.444 128.609 99.8693C128.568 92.2707 128.568 84.6707 128.593 77.072V77.072ZM167.364 91.056C164.303 90.6533 161.208 90.412 158.12 90.284C152.789 90.0653 147.453 90.012 142.12 89.8173C139.656 89.7267 139.399 88.2267 140.221 85.5427C150.303 86.1547 160.453 86.8827 170.612 87.3307C174.492 87.5013 175.352 89.8213 175.628 92.9133C175.929 96.292 174.765 98.8627 171.268 99.7133C169.617 100.115 167.809 100.285 166.128 100.097C158.352 99.22 150.593 98.1653 142.825 97.1987C140.355 96.8907 138.667 96.1267 140.375 92.7C144.825 93.328 149.443 94.0293 154.073 94.616C157.524 95.056 160.989 95.4227 164.459 95.6587C165.519 95.7307 166.752 95.4973 167.656 94.9707C168.5 94.48 169.008 93.4147 169.664 92.604C168.899 92.0653 168.185 91.1667 167.364 91.056V91.056ZM139.88 70.4173C150.383 69.3587 160.747 68.7147 171.044 71.0813C172.669 71.4547 174.776 72.2 175.503 73.4467C176.716 75.5267 177.64 78.1907 177.497 80.5373C177.331 83.2933 174.571 84.136 172.101 84.016C162.052 83.532 152.008 82.9107 141.971 82.216C141.312 82.1707 140.729 81.08 140.109 80.476C140.797 79.8 141.508 78.5213 142.164 78.5493C146.609 78.7387 151.047 79.1613 155.479 79.5987C158.683 79.9147 161.888 80.7613 165.063 80.628C167.216 80.5387 169.315 79.1613 171.437 78.3613C171.325 77.7027 171.211 77.0453 171.096 76.388C160.984 73.308 150.544 75.2293 139.88 75.3667V70.4173ZM193.044 14H49.0053C31.328 14 17 27.5813 17 44.3333V203.609C17 220.361 31.328 233.945 49.0053 233.945H193.044C210.719 233.945 225.047 220.361 225.047 203.609V44.3333C225.047 27.5813 210.719 14 193.044 14" fill="white"/>
<path d="M168.761 111.058C160.678 105.85 151.151 106.405 142.225 104.575C150.313 109.765 159.23 111.651 168.761 111.058Z" fill="white"/>
</svg>
