<svg width="209" height="220" viewBox="0 0 209 220" fill="none" xmlns="http://www.w3.org/2000/svg">
<path d="M175.552 136.251C170.585 138.192 165.351 138.595 159.872 137.977C159.757 135.727 159.477 133.757 159.651 131.828C159.721 131.04 160.693 129.809 161.401 129.695C164.519 129.199 167.699 129.128 170.833 128.724C173.825 128.339 176.175 129.384 178.18 131.487C178.196 131.831 178.213 132.173 178.232 132.517C177.355 133.803 176.748 135.783 175.552 136.251ZM177.76 144.133C177.532 146.508 176.104 147.943 173.859 148.223C169.133 148.815 164.38 149.187 159.352 149.675C159.263 147.932 159.169 146.833 159.159 145.739C159.104 139.836 159.105 139.704 165.015 139.479C168.216 139.356 171.48 139.516 174.633 140.049C176.489 140.363 177.985 141.811 177.76 144.133V144.133ZM171.679 161.668C170.056 161.805 168.413 161.695 166.779 161.697C166.777 161.644 166.776 161.591 166.773 161.537C165.055 161.623 163.339 161.719 161.62 161.795C160.284 161.853 158.833 161.924 158.901 160.004C159 157.251 157.672 153.025 160.601 152.259C164.931 151.127 169.771 151.801 174.385 151.969C176.285 152.04 177.312 153.389 177.393 155.48C177.525 158.935 175.445 161.355 171.679 161.668V161.668ZM158.388 122.028C158.177 120.612 158.695 119.705 160.168 119.424C162.943 118.896 165.713 118.347 168.487 117.808C168.497 117.873 168.511 117.94 168.523 118.003C169.467 117.956 170.415 117.825 171.355 117.879C173.865 118.02 176.051 119.903 176.231 121.991C176.451 124.548 175.208 125.973 172.145 126.619C169.881 127.096 167.627 127.675 165.336 127.957C160.055 128.607 159.191 127.864 158.476 122.536C158.455 122.365 158.412 122.199 158.388 122.028V122.028ZM153.033 104.229C142.545 103.716 132.904 100.524 124.156 94.7453C123.333 94.2013 122.836 92.76 122.703 91.672C122.544 90.3493 122.935 88.9613 123.217 86.444C132.841 87.616 142.471 88.3173 151.893 90.112C157.672 91.2147 159.409 95.3347 157.861 100.46C157.131 102.887 155.664 104.36 153.033 104.229V104.229ZM156.912 133.487L157.047 136.172C150.292 136.513 143.695 136.892 137.091 137.152C136.912 137.16 136.732 137.164 136.552 137.167C136.716 136.404 136.868 135.641 137.011 134.884C137.036 134.749 137.057 134.617 137.08 134.485L156.912 133.487ZM137.576 130.912C142.817 130.353 148.068 129.851 153.325 129.483C154.435 129.405 156.349 128.177 156.556 130.439C156.599 130.915 154.576 131.985 153.435 132.099C148.064 132.632 142.669 132.949 137.281 133.289C137.404 132.483 137.501 131.691 137.576 130.912V130.912ZM155.988 127.857C149.892 128.264 143.805 128.567 137.721 128.905C137.752 128.268 137.763 127.64 137.76 127.023C137.797 127.017 137.836 127.012 137.872 127.007C143.24 126.32 148.608 125.639 153.973 124.945C155.799 124.709 156.533 125.376 155.988 127.857V127.857ZM142.383 125.159C140.817 125.344 139.2 125.996 137.711 125.289C137.656 124.296 137.561 123.332 137.424 122.393C143.651 121.636 149.419 120.933 155.333 120.213C155.56 121.436 155.749 122.473 155.973 123.688C151.239 124.196 146.804 124.632 142.383 125.159ZM155.968 140.301C154.536 140.521 153.068 140.501 151.612 140.573C146.237 140.844 140.859 141.115 135.484 141.387C135.748 140.493 135.987 139.589 136.205 138.681L153.379 137.489C154.304 137.428 155.296 137.449 156.159 137.731C156.643 137.888 157.221 138.657 157.216 139.145C157.211 139.553 156.461 140.227 155.968 140.301V140.301ZM154.112 153.877C145.632 153.901 137.151 153.847 128.672 153.768C129.375 153.043 130.041 152.251 130.675 151.396C131.188 151.371 131.711 151.391 132.224 151.389C139.443 151.353 146.664 151.267 153.883 151.377C154.989 151.395 156.083 152.343 157.183 152.863C156.159 153.217 155.136 153.873 154.112 153.877V153.877ZM154.259 160.108C153.435 160.407 152.393 160.196 151.459 160.101C144.996 159.445 138.528 158.804 132.073 158.072C129.541 157.784 127.017 157.412 124.492 157.044C125.315 156.567 126.101 156.025 126.853 155.42C134.572 155.56 142.291 155.716 150.008 155.884C151.547 155.919 153.14 155.837 154.596 156.225C155.271 156.405 156.124 157.619 156.076 158.307C156.025 158.971 155.024 159.829 154.259 160.108ZM133.76 146.087C134.211 145.087 134.611 144.056 134.969 143.004C141.385 142.641 147.807 142.357 154.229 142.145C155.049 142.119 155.901 143.056 156.739 143.547C155.927 144.06 155.143 144.969 154.301 145.023C147.461 145.46 140.609 145.781 133.76 146.087V146.087ZM153.825 146.685C154.721 146.64 155.621 146.679 156.492 146.68C156.7 149.053 155.647 149.809 153.609 149.764C151.464 149.715 149.304 150.003 147.164 149.897C141.973 149.645 136.751 150.36 131.563 150.116C132.051 149.365 132.513 148.569 132.953 147.732C139.907 147.315 146.869 147.027 153.825 146.685V146.685ZM120.025 152.461C120.912 152.515 121.796 152.567 122.68 152.619C122.071 153.187 121.435 153.705 120.781 154.18C119.849 154.116 118.919 154.051 117.988 153.987C117.188 153.932 116.375 154.079 115.568 154.133L115.419 155.111C116.393 155.296 117.367 155.489 118.341 155.681C113.495 158.168 107.609 158.449 100.693 156.387C79.948 150.195 68.9333 137.653 68.788 115.205C68.7693 112.177 69.7827 109.112 70.5347 106.117C72.224 99.3906 71.4307 96.9787 65.7173 93.1733C59.3493 88.936 53.0173 84.628 46.48 80.664C41.6947 77.7613 36.456 76.5733 30.524 79.5853C32.1173 80.3813 33.728 81.144 35.3013 81.9773C44.164 86.6827 53.0733 91.308 61.8 96.252C62.784 96.8106 62.7267 99.204 63.1533 100.745C62.8573 100.887 62.5613 101.029 62.2627 101.169C62.596 101.276 62.932 101.371 63.2613 101.485C64.5627 101.945 66.64 102.072 67.0093 102.933C67.9973 105.233 65.8733 105.981 64.168 106.165C59.7387 106.641 55.276 107.099 50.8333 107.039C49.1813 107.016 47.1787 105.899 45.9707 104.663C40.248 98.8 32.9147 95.7013 25.7253 92.316C23.8187 91.4187 21.8987 90.548 20.012 89.6067C15.8733 87.5373 15.3893 86.3147 17.304 82.0813C19.6173 76.9613 24.0467 74.5986 29.2467 73.568C32.0507 73.0133 34.0347 72.084 35.4787 69.2507C36.2347 67.768 37.124 66.5347 38.1187 65.508C37 63.5293 35.76 61.6427 34.7 59.6213C33.8653 58.0307 34.32 56.208 36.1693 55.256C36.7253 54.9707 37.884 56.2453 38.5333 57.0333C39.732 58.4853 40.7587 60.108 41.8573 61.6573C42.1427 61.4627 42.4293 61.2707 42.716 61.076C42.3707 59.8173 42.028 58.556 41.6827 57.2987C40.3987 52.64 40.9907 51.612 46.1387 49.8573C47.34 53.1507 45.708 57.9387 49.004 60.6213C49.2813 57.8013 49.42 55.34 49.7907 52.8667C50.5413 47.86 50.98 47.5347 55.456 48.1467C55.9253 48.2107 56.4053 48.26 56.8467 48.392C58.3107 48.8387 58.9253 49.5427 57.804 51.6027C55.8573 55.1813 55.756 57.108 56.824 59.932C58.4107 57.2453 60.0187 54.6867 61.4453 52.048C62.6773 49.768 64.02 49.132 65.864 50.1013C66.9027 50.6453 68.052 51.004 69.3987 51.548L64.5507 58.056C68.496 57.312 71.6947 53.2947 75.0413 55.0227L76.3613 56.0053C75.2107 57.1333 74.14 58.42 72.884 59.352C71.1693 60.624 69.3107 61.6267 67.5147 62.7467C67.5747 63.0413 67.6347 63.3347 67.6933 63.6307C68.8227 63.3893 69.9587 63.2453 71.0773 62.8867C73.172 62.212 75.2547 61.3933 77.3467 60.6693C80.488 59.5827 82.1533 60.7973 82.8413 64.0973C79.2373 65.1507 75.8227 66.1467 72.408 67.1453C75.464 67.604 78.5733 67.4507 81.656 67.4427C85.4973 67.432 86.0307 68.276 85.12 72.4586C82.2347 72.6813 79.3507 72.9013 76.468 73.1213C76.7307 73.516 76.9813 73.9173 77.2253 74.324C77.7253 74.416 78.22 74.5213 78.6933 74.6733C80.792 75.3533 83.0267 75.864 84.8213 77.0106C85.552 77.4786 85.2827 79.4213 85.468 80.6907C84.3547 81.1147 83.168 81.8866 82.1427 81.8813C81.5573 81.8786 80.9853 81.8053 80.4133 81.7C81.9653 87.104 82.016 92.7373 80.332 97.292C77.7827 104.189 75.9253 111.223 76.1787 118.724C76.6933 133.911 87.7133 146.841 102.444 149.265C107.769 150.14 112.167 148.197 116.1 144.785C122.503 139.236 127.301 133.14 126.372 123.769C125.385 113.819 117.703 104.359 107.937 102.369C102.644 101.291 98.14 103.252 94.0907 106.411C88.4427 110.817 85.7947 121.849 88.8387 127.791C92.188 134.328 101.972 138.533 108.961 136.475C113.345 135.181 115.831 132.283 116.604 127.799C117.529 122.423 116.216 117.864 111.609 114.689C107.617 111.939 103.248 111.573 98.8907 113.771C95.9813 115.235 95.4667 119.525 97.5587 123C99.9373 126.948 104.689 128.497 107.677 126.221C108.276 125.765 108.603 124.955 108.976 124.419C106.747 124.263 104.697 124.332 102.769 123.883C101.956 123.693 100.919 122.445 100.856 121.613C100.789 120.763 101.577 119.4 102.364 119.008C105.279 117.556 108.445 117.269 111.2 119.249C113.861 121.163 113.997 124.087 113.185 127.021C112.331 130.108 111.021 133.351 107.615 133.883C102.763 134.637 97.908 134.237 94.2627 130.043C89.556 124.625 88.7933 116.621 92.604 111.444C96.6893 105.888 103.747 104.205 110.659 107.141C122.32 112.095 126.752 126.207 119.816 136.813C115.508 143.401 109.151 145.476 101.631 143.873C92.7747 141.988 84.512 138.512 82.0653 128.905C79.5467 119.013 81.888 109.556 88.7213 101.736C94.12 95.556 105 94.004 114.405 97.9347C124.281 102.061 131.888 109.92 133 121.725L132.953 121.729C132.7 122.436 132.427 123.131 132.136 123.821C132.457 124.184 132.793 124.447 133.139 124.632C133.14 125.203 133.131 125.78 133.101 126.367C132.456 126.417 131.795 126.477 130.927 126.553C130.647 127.168 130.367 127.78 130.091 128.396C130.451 128.299 130.855 128.256 131.183 128.253C131.779 128.249 132.373 128.248 132.969 128.245C132.907 128.9 132.823 129.565 132.723 130.241C132.427 130.259 132.133 130.275 131.837 130.291C130.94 130.343 130.076 130.964 129.195 131.324L129.391 132.233C130.361 132.363 131.333 132.613 132.304 132.601H132.307C132.228 132.992 132.14 133.388 132.049 133.784H127.899C127.603 134.545 127.304 135.301 126.996 136.055C128.513 136.22 129.953 136.389 131.385 136.437C131.249 136.936 131.109 137.436 130.964 137.933C129.763 137.953 128.563 137.976 127.36 137.993C125.732 138.016 124.94 138.523 125.475 140.597H130.107C129.917 141.132 129.719 141.663 129.511 142.187C127.861 142.197 126.216 142.209 124.568 142.229C123.715 142.241 122.875 143.325 122.031 143.911C122.185 144.212 122.34 144.511 122.495 144.813C123.849 144.945 125.201 145.188 126.557 145.196C127.087 145.2 127.617 145.201 128.148 145.205C127.951 145.591 127.747 145.972 127.533 146.347C127.444 146.503 127.352 146.655 127.26 146.808C125.968 146.821 124.676 146.836 123.384 146.859C122.593 146.872 121.861 146.829 121.171 146.708C120.836 147.176 120.489 147.637 120.137 148.092C121.992 148.624 123.865 148.936 125.751 149.119C125.441 149.547 125.124 149.956 124.8 150.352C124.451 150.352 124.105 150.373 123.771 150.44C121.732 150.844 119.931 150.749 118.312 150.275C117.857 150.779 117.389 151.272 116.905 151.747C117.773 151.753 119.016 152.4 120.025 152.461V152.461ZM90.3973 171.883C88.1787 169.757 86.2813 167.251 84.488 164.737C81.9747 161.219 79.6893 157.533 77.556 153.619C83.9147 156.527 86.0293 164.097 92.5907 168.011C89.8387 160.919 84.1667 156.999 79.7573 151.415C80.3547 150.864 80.952 150.311 81.6307 149.684C88.4933 156.925 97.332 162.073 99.376 172.775C96.1027 174.44 92.9773 174.351 90.3973 171.883V171.883ZM88.7773 184.937C86.064 186.436 83.824 185.641 81.4067 182.001C76.8907 175.201 72.488 168.329 68.0373 161.487C68.2507 161.153 68.464 160.82 68.6773 160.487C70.2467 161.308 72.3013 161.752 73.2933 163.027C76.1773 166.736 78.5653 170.829 81.2947 174.668C82.8107 176.803 84.6173 178.728 86.2947 180.749C86.7173 180.511 87.1387 180.272 87.5613 180.032C87.24 178.728 87.256 177.187 86.5373 176.161C83.0587 171.195 79.3907 166.36 75.7653 161.499C75.096 160.603 74.2053 159.856 73.632 158.909C73.332 158.416 73.5 157.637 73.4573 156.985C74.1907 157.048 75.2947 156.82 75.6 157.215C80.6187 163.672 85.7787 170.047 90.372 176.803C92.5747 180.043 91.4307 183.469 88.7773 184.937V184.937ZM60.712 154.785C60.3733 154.125 61.0653 152.527 61.7653 151.819C64.3773 149.176 67.184 146.724 69.92 144.205C72.2947 142.019 74.1587 143.225 75.972 145.081C78.1947 147.356 75.796 148.321 74.6693 149.524C72.804 151.517 70.8827 153.481 68.8053 155.248C67.5373 156.328 65.9373 157.015 64.0227 158.155C62.748 156.929 61.3587 156.048 60.712 154.785ZM55.2493 146.461C54.06 144.333 53.2467 141.993 51.976 139.087C53.4933 137.115 55.0107 135.113 56.568 133.147C56.868 132.769 57.304 132.476 57.7227 132.216C66.3947 126.825 66.2267 127.495 71.0133 136.292C71.552 137.281 71.0507 139.575 70.1973 140.445C67.6187 143.076 64.6947 145.392 61.7773 147.667C58.7027 150.06 57.1027 149.777 55.2493 146.461V146.461ZM50.26 111.813C55.6747 110.612 61.1227 109.403 66.6347 108.177C67.376 113.659 66.512 114.807 62.1227 115.497C59.932 115.843 57.792 116.519 55.5973 116.813C51.9187 117.308 50.6987 116.163 50.26 111.813ZM54.468 121.067C56.524 120.273 58.624 119.404 60.7787 119.112C62.0627 118.94 63.4907 119.823 64.8533 120.228C64.328 121.857 64.28 124.317 63.1827 124.948C60.58 126.447 57.4853 127.1 54.5747 128.049C53.5307 128.389 52.444 128.596 51.1707 128.913C49.384 123.072 49.3693 123.035 54.468 121.067V121.067ZM90.592 67.5533C90.736 62.8293 94.972 59.7013 99.5133 61.2346C100.513 61.5733 101.684 63.0267 101.801 64.0747C102.308 68.6267 102.452 73.2173 102.728 77.792C102.681 77.796 102.635 77.8 102.588 77.8053C102.588 80.9107 102.473 84.0213 102.623 87.12C102.765 90.152 101.423 91.7587 98.5133 92.264C95.564 92.7733 92.7733 92.4253 91.708 89.2866C90.808 86.64 90.3267 83.7493 90.24 80.948C90.104 76.4907 90.456 72.0173 90.592 67.5533V67.5533ZM103.996 60.0973H107.84V89.192H103.996V60.0973ZM117.905 58.076V90.3307C112.921 91.388 111.633 90.444 111.609 85.8693C111.567 78.2707 111.567 70.6707 111.593 63.072C111.612 57.624 112.155 57.208 117.905 58.076V58.076ZM150.363 77.056C147.301 76.6533 144.207 76.412 141.12 76.284C135.789 76.0653 130.453 76.012 125.12 75.8173C122.655 75.7267 122.399 74.2267 123.221 71.5427C133.303 72.1547 143.452 72.8827 153.612 73.3307C157.492 73.5013 158.351 75.8213 158.628 78.9133C158.929 82.292 157.765 84.8627 154.268 85.7133C152.616 86.1147 150.809 86.2853 149.128 86.0973C141.351 85.22 133.593 84.1653 125.825 83.1987C123.355 82.8907 121.667 82.1267 123.375 78.7C127.825 79.328 132.443 80.0293 137.073 80.616C140.524 81.056 143.988 81.4227 147.457 81.6587C148.519 81.7307 149.752 81.4973 150.656 80.9707C151.499 80.48 152.008 79.4147 152.664 78.604C151.899 78.0653 151.184 77.1667 150.363 77.056V77.056ZM122.879 56.4173C133.383 55.3587 143.747 54.7147 154.044 57.0813C155.669 57.4547 157.775 58.2 158.503 59.4467C159.716 61.5267 160.639 64.1907 160.497 66.5373C160.331 69.2933 157.569 70.136 155.1 70.016C145.051 69.532 135.008 68.9107 124.971 68.216C124.312 68.1707 123.729 67.08 123.109 66.476C123.796 65.8 124.508 64.5213 125.164 64.5493C129.609 64.7387 134.047 65.1613 138.479 65.5987C141.683 65.9147 144.888 66.7613 148.063 66.628C150.216 66.5387 152.313 65.1613 154.437 64.3613C154.324 63.7027 154.211 63.0453 154.096 62.388C143.983 59.308 133.544 61.2293 122.879 61.3667V56.4173ZM176.044 -7.23529e-06H32.004C14.3293 -7.23529e-06 0 13.5813 0 30.3333V189.609C0 206.361 14.3293 219.945 32.004 219.945H176.044C193.719 219.945 208.047 206.361 208.047 189.609V30.3333C208.047 13.5813 193.719 -7.23529e-06 176.044 -7.23529e-06" fill="#B44638"/>
</svg>
