<svg width="450" height="450" viewBox="0 0 450 450" fill="none" xmlns="http://www.w3.org/2000/svg">
<path d="M0 450H450V8.58307e-06H0V450Z" fill="#B44638"/>
<path d="M84.244 330.029H89.3333C90.7653 330.029 91.9813 329.529 92.984 328.527C93.9853 327.525 94.4867 326.329 94.4867 324.939V319.848C94.4867 318.417 93.9853 317.201 92.984 316.199C91.9813 315.197 90.7653 314.696 89.3333 314.696H84.244V330.029ZM74 355.605V309.605H94.4867C97.2667 309.605 99.6587 310.617 101.661 312.641C103.665 314.665 104.667 317.068 104.667 319.848V324.939C104.667 327.72 103.665 330.121 101.661 332.145C99.6587 334.169 97.2667 335.181 94.4867 335.181H84.244V355.605H74Z" fill="white"/>
<path d="M125.153 319.848V345.363C125.153 346.754 125.653 347.959 126.656 348.982C127.656 350.004 128.852 350.515 130.242 350.515C131.674 350.515 132.89 350.004 133.893 348.982C134.894 347.959 135.396 346.754 135.396 345.363V319.848C135.396 318.418 134.894 317.202 133.893 316.199C132.89 315.198 131.674 314.696 130.242 314.696C128.852 314.696 127.656 315.198 126.656 316.199C125.653 317.202 125.153 318.418 125.153 319.848ZM125.153 309.606H135.396C138.176 309.606 140.568 310.618 142.57 312.642C144.574 314.666 145.576 317.068 145.576 319.848V345.363C145.576 348.144 144.574 350.546 142.57 352.57C140.568 354.594 138.176 355.606 135.396 355.606H125.153C122.372 355.606 119.969 354.604 117.946 352.6C115.921 350.598 114.909 348.183 114.909 345.363V319.848C114.909 317.027 115.921 314.615 117.946 312.611C119.969 310.608 122.372 309.606 125.153 309.606Z" fill="white"/>
<path d="M186.485 345.363C186.075 352.191 182.681 355.606 176.303 355.606H166.062C163.281 355.606 160.878 354.605 158.854 352.601C156.83 350.598 155.818 348.183 155.818 345.363V319.849C155.818 317.067 156.809 314.666 158.793 312.641C160.775 310.617 163.198 309.606 166.062 309.606H176.303C182.723 309.606 186.117 313.021 186.485 319.849H181.395C180.985 316.414 179.289 314.697 176.303 314.697H171.151C169.761 314.697 168.565 315.197 167.565 316.198C166.562 317.201 166.062 318.418 166.062 319.849V345.363C166.062 346.754 166.562 347.959 167.565 348.982C168.565 350.003 169.761 350.514 171.151 350.514H176.303C179.33 350.514 181.026 348.797 181.395 345.363H186.485Z" fill="white"/>
<path d="M196.727 355.605V309.605H206.971V330.029H217.212V309.605H227.394V355.605H217.212V335.181H206.971V355.605H196.727Z" fill="white"/>
<path d="M242.788 355.605V314.696H232.546V309.605H263.212V314.696H252.97V355.605H242.788Z" fill="white"/>
<path d="M268.304 355.605V309.605H293.88V314.696H278.547V330.029H288.788V335.181H278.547V350.515H293.88V355.605H268.304Z" fill="white"/>
<path d="M334.726 345.363C334.316 352.191 330.923 355.606 324.543 355.606H314.302C311.52 355.606 309.119 354.605 307.095 352.601C305.072 350.598 304.059 348.183 304.059 345.363V319.849C304.059 317.067 305.051 314.666 307.032 312.641C309.018 310.617 311.439 309.606 314.302 309.606H324.543C330.963 309.606 334.359 313.021 334.726 319.849H329.635C329.226 316.414 327.528 314.697 324.543 314.697H319.392C318.002 314.697 316.807 315.197 315.804 316.198C314.802 317.201 314.302 318.418 314.302 319.849V345.363C314.302 346.754 314.802 347.959 315.804 348.982C316.807 350.003 318.002 350.514 319.392 350.514H324.543C327.57 350.514 329.267 348.797 329.635 345.363H334.726Z" fill="white"/>
<path d="M355.21 330.029H365.453V319.848C365.453 318.417 364.953 317.201 363.95 316.199C362.948 315.197 361.732 314.696 360.301 314.696C358.91 314.696 357.716 315.197 356.713 316.199C355.71 317.201 355.21 318.417 355.21 319.848V330.029ZM344.968 355.605V319.848C344.968 317.027 345.981 314.615 348.005 312.611C350.028 310.608 352.429 309.605 355.21 309.605H365.453C368.234 309.605 370.628 310.617 372.629 312.641C374.632 314.665 375.634 317.068 375.634 319.848V355.605H365.453V335.181H355.21V355.605H344.968Z" fill="white"/>
<path d="M74.0071 374.137C74.0071 372.947 74.2217 371.773 74.6524 370.609C75.0831 369.447 75.7084 368.409 76.5337 367.494C77.3564 366.579 78.3631 365.837 79.5524 365.27C80.7417 364.703 82.0951 364.419 83.6151 364.419C85.4084 364.419 86.9604 364.813 88.2671 365.599C89.5777 366.387 90.5511 367.411 91.1924 368.674L88.2817 370.678C88.0257 370.129 87.7151 369.666 87.3484 369.291C86.9817 368.917 86.5897 368.619 86.1684 368.399C85.7471 368.179 85.3084 368.019 84.8511 367.919C84.3924 367.819 83.9444 367.769 83.5044 367.769C82.5537 367.769 81.7257 367.961 81.0204 368.345C80.3164 368.729 79.7311 369.227 79.2644 369.841C78.7977 370.454 78.4444 371.15 78.2071 371.927C77.9697 372.706 77.8511 373.478 77.8511 374.247C77.8511 375.107 77.9871 375.935 78.2617 376.731C78.5351 377.527 78.9244 378.227 79.4284 378.831C79.9311 379.435 80.5351 379.921 81.2417 380.286C81.9444 380.653 82.7177 380.834 83.5604 380.834C83.9991 380.834 84.4577 380.779 84.9324 380.67C85.4084 380.561 85.8617 380.386 86.2911 380.149C86.7204 379.911 87.1191 379.605 87.4857 379.229C87.8511 378.854 88.1457 378.401 88.3644 377.87L91.4657 379.655C91.1551 380.386 90.7111 381.033 90.1351 381.59C89.5591 382.149 88.9084 382.619 88.1871 383.003C87.4631 383.387 86.6897 383.681 85.8671 383.883C85.0431 384.083 84.2364 384.183 83.4497 384.183C82.0591 384.183 80.7884 383.891 79.6351 383.306C78.4804 382.719 77.4884 381.955 76.6551 381.013C75.8231 380.071 75.1737 378.999 74.7071 377.802C74.2417 376.603 74.0071 375.382 74.0071 374.137Z" fill="white"/>
<path d="M98.0265 374.275C98.0265 375.116 98.1558 375.931 98.4105 376.717C98.6665 377.504 99.0385 378.199 99.5225 378.803C100.007 379.408 100.604 379.893 101.307 380.259C102.012 380.625 102.812 380.807 103.711 380.807C104.624 380.807 105.435 380.62 106.139 380.245C106.843 379.869 107.439 379.371 107.924 378.748C108.408 378.127 108.775 377.427 109.021 376.648C109.268 375.871 109.392 375.08 109.392 374.275C109.392 373.432 109.26 372.619 108.995 371.831C108.728 371.044 108.353 370.349 107.869 369.745C107.384 369.14 106.788 368.66 106.084 368.303C105.38 367.947 104.588 367.768 103.711 367.768C102.793 367.768 101.98 367.956 101.267 368.331C100.553 368.705 99.9572 369.2 99.4812 369.813C99.0052 370.427 98.6452 371.123 98.3972 371.9C98.1505 372.679 98.0265 373.469 98.0265 374.275ZM103.681 384.156C102.255 384.156 100.96 383.877 99.7972 383.319C98.6345 382.761 97.6372 382.021 96.8052 381.096C95.9718 380.172 95.3278 379.115 94.8692 377.925C94.4118 376.736 94.1838 375.52 94.1838 374.275C94.1838 372.975 94.4265 371.731 94.9105 370.54C95.3945 369.352 96.0638 368.3 96.9158 367.384C97.7665 366.469 98.7772 365.741 99.9478 365.201C101.119 364.661 102.392 364.392 103.765 364.392C105.173 364.392 106.459 364.68 107.621 365.256C108.783 365.833 109.776 366.587 110.6 367.521C111.424 368.455 112.064 369.516 112.521 370.705C112.979 371.896 113.208 373.103 113.208 374.329C113.208 375.629 112.969 376.868 112.495 378.048C112.017 379.229 111.359 380.272 110.517 381.179C109.675 382.084 108.668 382.807 107.497 383.347C106.327 383.887 105.055 384.156 103.681 384.156Z" fill="white"/>
<path d="M133.549 384.019V371.117L128.525 380.725H126.466L121.444 371.117V384.019H117.656V364.529H121.718L127.484 375.619L133.302 364.529H137.338V384.019H133.549Z" fill="white"/>
<path d="M156.471 380.698V384.019H142.937V364.528H156.223V367.85H146.725V372.544H154.935V375.619H146.725V380.698H156.471Z" fill="white"/>
<path d="M164.761 374.164H169.51C169.857 374.164 170.182 374.081 170.485 373.917C170.786 373.752 171.048 373.528 171.268 373.245C171.486 372.961 171.661 372.628 171.789 372.243C171.916 371.859 171.981 371.447 171.981 371.008C171.981 370.551 171.908 370.129 171.761 369.745C171.614 369.36 171.418 369.025 171.172 368.743C170.924 368.46 170.64 368.24 170.32 368.083C170 367.928 169.676 367.851 169.345 367.851H164.761V374.164ZM160.973 384.02V364.528H169.593C170.489 364.528 171.317 364.716 172.077 365.091C172.836 365.468 173.492 365.961 174.04 366.575C174.588 367.188 175.018 367.883 175.33 368.66C175.641 369.439 175.796 370.221 175.796 371.008C175.796 372.271 175.481 373.419 174.849 374.453C174.218 375.487 173.362 376.233 172.284 376.691L176.73 384.02H172.476L168.494 377.485H164.761V384.02H160.973Z" fill="white"/>
<path d="M179.585 374.137C179.585 372.947 179.799 371.773 180.229 370.609C180.66 369.447 181.285 368.409 182.111 367.494C182.935 366.579 183.94 365.837 185.129 365.27C186.32 364.703 187.673 364.419 189.192 364.419C190.987 364.419 192.537 364.813 193.845 365.599C195.155 366.387 196.128 367.411 196.771 368.674L193.859 370.678C193.604 370.129 193.292 369.666 192.927 369.291C192.559 368.917 192.167 368.619 191.745 368.399C191.325 368.179 190.885 368.019 190.429 367.919C189.971 367.819 189.523 367.769 189.083 367.769C188.131 367.769 187.303 367.961 186.599 368.345C185.893 368.729 185.309 369.227 184.841 369.841C184.375 370.454 184.023 371.15 183.784 371.927C183.547 372.706 183.428 373.478 183.428 374.247C183.428 375.107 183.564 375.935 183.84 376.731C184.113 377.527 184.503 378.227 185.007 378.831C185.509 379.435 186.113 379.921 186.819 380.286C187.523 380.653 188.296 380.834 189.137 380.834C189.577 380.834 190.035 380.779 190.509 380.67C190.987 380.561 191.44 380.386 191.869 380.149C192.299 379.911 192.697 379.605 193.063 379.229C193.429 378.854 193.723 378.401 193.943 377.87L197.044 379.655C196.732 380.386 196.288 381.033 195.713 381.59C195.136 382.149 194.487 382.619 193.764 383.003C193.041 383.387 192.268 383.681 191.445 383.883C190.62 384.083 189.815 384.183 189.028 384.183C187.637 384.183 186.365 383.891 185.213 383.306C184.059 382.719 183.067 381.955 182.233 381.013C181.4 380.071 180.752 378.999 180.284 377.802C179.819 376.603 179.585 375.382 179.585 374.137Z" fill="white"/>
<path d="M201.135 364.529H204.923V384.02H201.135V364.529Z" fill="white"/>
<path d="M220.431 376.497L217.741 368.839L214.942 376.497H220.431ZM216.067 364.528H219.415L226.827 384.02H222.93L221.119 379.16H214.31L212.525 384.02H208.627L216.067 364.528Z" fill="white"/>
<path d="M230.507 384.019V364.529H234.296V380.698H244.234V384.019H230.507Z" fill="white"/>
<path d="M248.076 364.529H251.865V384.02H248.076V364.529Z" fill="white"/>
<path d="M256.256 381.164L267.265 367.851H256.559V364.528H271.629V367.384L260.979 380.697H271.712V384.02H256.256V381.164Z" fill="white"/>
<path d="M286.124 376.497L283.434 368.839L280.634 376.497H286.124ZM281.76 364.528H285.108L292.52 384.02H288.623L286.811 379.16H280.003L278.218 384.02H274.319L281.76 364.528Z" fill="white"/>
<path d="M309.075 374.247C309.075 373.314 308.946 372.453 308.691 371.666C308.435 370.881 308.059 370.202 307.564 369.635C307.071 369.067 306.462 368.629 305.739 368.318C305.016 368.006 304.198 367.85 303.282 367.85H299.99V380.698H303.282C304.215 380.698 305.044 380.533 305.767 380.203C306.491 379.874 307.094 379.422 307.579 378.845C308.063 378.269 308.435 377.587 308.691 376.799C308.946 376.013 309.075 375.163 309.075 374.247ZM296.2 384.019V364.529H303.282C304.875 364.529 306.27 364.785 307.47 365.298C308.667 365.81 309.67 366.505 310.475 367.385C311.28 368.262 311.883 369.291 312.287 370.473C312.69 371.653 312.89 372.911 312.89 374.247C312.89 375.729 312.666 377.07 312.218 378.269C311.77 379.467 311.124 380.493 310.283 381.342C309.44 382.194 308.431 382.853 307.25 383.319C306.068 383.786 304.747 384.019 303.282 384.019H296.2Z" fill="white"/>
<path d="M320.054 374.275C320.054 375.116 320.182 375.931 320.438 376.717C320.694 377.504 321.066 378.199 321.55 378.803C322.034 379.408 322.63 379.893 323.335 380.259C324.038 380.625 324.839 380.807 325.737 380.807C326.651 380.807 327.462 380.62 328.166 380.245C328.87 379.869 329.466 379.371 329.951 378.748C330.435 378.127 330.802 377.427 331.049 376.648C331.297 375.871 331.418 375.08 331.418 374.275C331.418 373.432 331.286 372.619 331.022 371.831C330.755 371.044 330.381 370.349 329.895 369.745C329.411 369.14 328.815 368.66 328.111 368.303C327.407 367.947 326.615 367.768 325.737 367.768C324.821 367.768 324.007 367.956 323.294 368.331C322.581 368.705 321.985 369.2 321.51 369.813C321.033 370.427 320.673 371.123 320.425 371.9C320.178 372.679 320.054 373.469 320.054 374.275ZM325.709 384.156C324.282 384.156 322.986 383.877 321.825 383.319C320.662 382.761 319.665 382.021 318.833 381.096C317.999 380.172 317.355 379.115 316.898 377.925C316.439 376.736 316.211 375.52 316.211 374.275C316.211 372.975 316.454 371.731 316.938 370.54C317.423 369.352 318.091 368.3 318.942 367.384C319.794 366.469 320.803 365.741 321.975 365.201C323.146 364.661 324.418 364.392 325.791 364.392C327.201 364.392 328.486 364.68 329.649 365.256C330.81 365.833 331.805 366.587 332.627 367.521C333.451 368.455 334.09 369.516 334.549 370.705C335.006 371.896 335.235 373.103 335.235 374.329C335.235 375.629 334.997 376.868 334.522 378.048C334.045 379.229 333.386 380.272 332.545 381.179C331.702 382.084 330.695 382.807 329.526 383.347C328.354 383.887 327.082 384.156 325.709 384.156Z" fill="white"/>
<path d="M343.472 374.164H348.221C348.568 374.164 348.892 374.081 349.195 373.917C349.497 373.752 349.759 373.528 349.977 373.245C350.197 372.961 350.371 372.628 350.5 372.243C350.627 371.859 350.691 371.447 350.691 371.008C350.691 370.551 350.617 370.129 350.472 369.745C350.325 369.36 350.128 369.025 349.881 368.743C349.635 368.46 349.351 368.24 349.031 368.083C348.711 367.928 348.385 367.851 348.056 367.851H343.472V374.164ZM339.683 384.02V364.528H348.303C349.2 364.528 350.028 364.716 350.787 365.091C351.547 365.468 352.201 365.961 352.751 366.575C353.299 367.188 353.728 367.883 354.04 368.66C354.351 369.439 354.507 370.221 354.507 371.008C354.507 372.271 354.191 373.419 353.559 374.453C352.929 375.487 352.072 376.233 350.993 376.691L355.441 384.02H351.185L347.205 377.485H343.472V384.02H339.683Z" fill="white"/>
<path d="M369.084 376.497L366.393 368.839L363.593 376.497H369.084ZM364.72 364.528H368.068L375.48 384.02H371.583L369.771 379.16H362.963L361.177 384.02H357.279L364.72 364.528Z" fill="white"/>
<path d="M160.71 139.201C162.257 138.282 163.822 137.389 165.338 136.416C165.557 136.274 165.538 135.76 165.923 134.321C163.415 135.596 161.609 136.513 159.798 137.433C160.101 138.022 160.405 138.612 160.71 139.201Z" fill="white"/>
<path d="M142.671 149.034C142.624 149.393 142.58 149.752 142.532 150.11C152.031 154.773 160.056 162.564 171.71 162.785C169.132 161.132 166.668 159.257 163.955 157.872C157.934 154.794 151.807 151.92 145.666 149.088C144.835 148.704 143.676 149.034 142.671 149.034Z" fill="white"/>
<path d="M176.481 143.822C175.916 144.085 174.402 142.317 173.838 141.877C173.798 138.132 175.478 136.832 177.786 137.221C179.062 137.436 180.093 139.098 181.233 140.109C179.676 141.405 178.254 142.996 176.481 143.822ZM176.036 132.109C173.194 132.222 169.95 136.924 169.997 140.862C170.036 144.206 173.413 146.93 177.546 146.953C181.52 146.973 184.405 144.108 184.338 140.209C184.273 136.378 179.746 131.962 176.036 132.109Z" fill="white"/>
<path d="M216.07 136.964C216.583 136.883 217.096 136.804 217.608 136.725C217.431 134.921 217.255 133.116 217.08 131.312C216.242 131.463 214.939 131.333 214.648 131.816C213.356 133.956 214.007 135.736 216.07 136.964Z" fill="white"/>
<path d="M176.528 203.614C175.963 204.57 174.779 205.667 174.96 206.451C175.364 208.203 176.447 209.802 177.255 211.461C177.635 211.418 178.017 211.374 178.397 211.331C178.809 210.299 179.809 209.039 179.515 208.279C178.861 206.591 177.561 205.153 176.528 203.614Z" fill="white"/>
<path d="M183.481 205.253C184.072 204.312 185.226 203.305 185.124 202.448C184.981 201.245 183.905 200.156 183.229 199.016C182.848 199.069 182.468 199.124 182.088 199.179C181.732 200.061 180.885 201.12 181.124 201.788C181.582 203.061 182.661 204.111 183.481 205.253Z" fill="white"/>
<path d="M215.866 154.273C216.566 154.553 217.79 153.515 219.358 152.805C217.208 150.867 216.46 149.719 215.525 149.535C214.968 149.425 213.385 151.091 213.533 151.514C213.918 152.613 214.845 153.865 215.866 154.273Z" fill="white"/>
<path d="M185.314 149.045C182.997 150.768 183.054 152.509 185.658 153.84C188.057 155.066 190.585 156.032 193.462 157.293C193.27 155.274 193.325 153.418 192.882 151.689C191.71 147.116 189.072 146.253 185.314 149.045Z" fill="white"/>
<path d="M217.385 143.741C216.843 142.539 216.302 141.333 215.762 140.131C215.379 140.191 214.999 140.251 214.617 140.311C214.257 141.601 213.895 142.892 213.533 144.183C213.809 144.471 214.082 144.759 214.357 145.045C215.363 144.609 216.374 144.176 217.385 143.741Z" fill="white"/>
<path d="M294.226 202.251C289.259 204.192 284.026 204.595 278.546 203.977C278.431 201.727 278.152 199.757 278.324 197.828C278.395 197.04 279.368 195.809 280.075 195.695C283.192 195.199 286.374 195.128 289.507 194.724C292.499 194.339 294.848 195.384 296.854 197.487C296.871 197.831 296.887 198.173 296.906 198.517C296.028 199.803 295.423 201.783 294.226 202.251ZM296.434 210.133C296.207 212.508 294.778 213.943 292.532 214.223C287.807 214.815 283.054 215.187 278.026 215.675C277.936 213.932 277.843 212.833 277.832 211.739C277.778 205.836 277.78 205.704 283.69 205.479C286.89 205.356 290.155 205.516 293.307 206.049C295.163 206.363 296.66 207.811 296.434 210.133V210.133ZM290.354 227.668C288.731 227.805 287.087 227.695 285.452 227.697C285.452 227.644 285.45 227.591 285.447 227.537C283.728 227.623 282.012 227.719 280.294 227.795C278.958 227.853 277.507 227.924 277.575 226.004C277.674 223.251 276.346 219.025 279.275 218.259C283.606 217.127 288.444 217.801 293.059 217.969C294.96 218.04 295.986 219.389 296.067 221.48C296.199 224.935 294.119 227.355 290.354 227.668V227.668ZM277.062 188.028C276.851 186.612 277.368 185.705 278.843 185.424C281.616 184.896 284.387 184.347 287.16 183.808C287.171 183.873 287.184 183.94 287.198 184.003C288.14 183.956 289.09 183.825 290.028 183.879C292.54 184.02 294.726 185.903 294.906 187.991C295.124 190.548 293.882 191.973 290.819 192.619C288.556 193.096 286.302 193.675 284.01 193.957C278.728 194.607 277.864 193.864 277.15 188.536C277.13 188.365 277.086 188.199 277.062 188.028V188.028ZM271.707 170.229C261.22 169.716 251.578 166.524 242.83 160.745C242.007 160.201 241.51 158.76 241.376 157.672C241.218 156.349 241.608 154.961 241.892 152.444C251.515 153.616 261.144 154.317 270.567 156.112C276.346 157.215 278.083 161.335 276.535 166.46C275.804 168.887 274.338 170.36 271.707 170.229ZM275.586 199.487L275.72 202.172C268.966 202.513 262.368 202.892 255.764 203.152C255.586 203.16 255.406 203.164 255.226 203.167C255.39 202.404 255.543 201.641 255.684 200.884C255.71 200.749 255.731 200.617 255.754 200.485L275.586 199.487ZM256.25 196.912C261.491 196.353 266.742 195.851 271.999 195.483C273.108 195.405 275.023 194.177 275.231 196.439C275.272 196.915 273.25 197.985 272.108 198.099C266.739 198.632 261.343 198.949 255.955 199.289C256.078 198.483 256.176 197.691 256.25 196.912V196.912ZM274.663 193.857C268.567 194.264 262.48 194.567 256.395 194.905C256.426 194.268 256.436 193.64 256.434 193.023C256.471 193.017 256.51 193.012 256.546 193.007C261.914 192.32 267.283 191.639 272.647 190.945C274.474 190.709 275.207 191.376 274.663 193.857V193.857ZM261.056 191.159C259.491 191.344 257.874 191.996 256.384 191.289C256.33 190.296 256.236 189.332 256.098 188.393C262.324 187.636 268.092 186.933 274.007 186.213C274.234 187.436 274.423 188.473 274.647 189.688C269.914 190.196 265.478 190.632 261.056 191.159ZM274.642 206.301C273.21 206.521 271.742 206.501 270.286 206.573C264.911 206.844 259.532 207.115 254.158 207.387C254.423 206.493 254.66 205.589 254.879 204.681L272.054 203.489C272.978 203.428 273.971 203.449 274.832 203.731C275.316 203.888 275.895 204.657 275.89 205.145C275.884 205.553 275.135 206.227 274.642 206.301ZM272.786 219.877C264.307 219.901 255.824 219.847 247.346 219.768C248.048 219.043 248.715 218.251 249.348 217.396C249.862 217.371 250.384 217.391 250.898 217.389C258.116 217.353 265.338 217.267 272.556 217.377C273.663 217.395 274.756 218.343 275.856 218.863C274.832 219.217 273.811 219.873 272.786 219.877V219.877ZM272.934 226.108C272.108 226.407 271.067 226.196 270.132 226.101C263.671 225.445 257.202 224.804 250.747 224.072C248.215 223.784 245.692 223.412 243.166 223.044C243.988 222.567 244.775 222.025 245.528 221.42C253.247 221.56 260.966 221.716 268.682 221.884C270.22 221.919 271.814 221.837 273.27 222.225C273.944 222.405 274.799 223.619 274.75 224.307C274.699 224.971 273.698 225.829 272.934 226.108V226.108ZM252.434 212.087C252.884 211.087 253.286 210.056 253.643 209.004C260.059 208.641 266.48 208.357 272.903 208.145C273.723 208.119 274.575 209.056 275.414 209.547C274.6 210.06 273.816 210.969 272.975 211.023C266.135 211.46 259.283 211.781 252.434 212.087V212.087ZM272.499 212.685C273.395 212.64 274.296 212.679 275.166 212.68C275.374 215.053 274.322 215.809 272.283 215.764C270.138 215.715 267.978 216.003 265.838 215.897C260.647 215.645 255.426 216.36 250.236 216.116C250.726 215.365 251.187 214.569 251.627 213.732C258.58 213.315 265.543 213.027 272.499 212.685V212.685ZM238.699 218.461C239.586 218.515 240.471 218.567 241.354 218.619C240.744 219.187 240.108 219.705 239.455 220.18C238.523 220.116 237.592 220.051 236.663 219.987C235.862 219.932 235.048 220.079 234.242 220.133L234.092 221.111C235.067 221.296 236.04 221.489 237.015 221.681C232.168 224.168 226.283 224.449 219.368 222.387C198.622 216.195 187.606 203.653 187.463 181.205C187.442 178.177 188.458 175.112 189.207 172.117C190.898 165.391 190.106 162.979 184.39 159.173C178.023 154.936 171.692 150.628 165.152 146.664C160.368 143.761 155.13 142.573 149.198 145.585C150.791 146.381 152.403 147.144 153.975 147.977C162.838 152.683 171.747 157.308 180.474 162.252C181.458 162.811 181.4 165.204 181.827 166.745C181.531 166.887 181.236 167.029 180.936 167.169C181.27 167.276 181.606 167.371 181.936 167.485C183.236 167.945 185.314 168.072 185.684 168.933C186.671 171.233 184.548 171.981 182.843 172.165C178.414 172.641 173.95 173.099 169.507 173.039C167.856 173.016 165.854 171.899 164.644 170.663C158.923 164.8 151.59 161.701 144.4 158.316C142.491 157.419 140.572 156.548 138.687 155.607C134.546 153.537 134.064 152.315 135.978 148.081C138.291 142.961 142.721 140.599 147.92 139.568C150.726 139.013 152.71 138.084 154.152 135.251C154.908 133.768 155.799 132.535 156.794 131.508C155.674 129.529 154.434 127.643 153.374 125.621C152.54 124.031 152.994 122.208 154.843 121.256C155.4 120.971 156.559 122.245 157.207 123.033C158.406 124.485 159.431 126.108 160.531 127.657C160.816 127.463 161.103 127.271 161.39 127.076C161.043 125.817 160.702 124.556 160.356 123.299C159.072 118.64 159.666 117.612 164.811 115.857C166.015 119.151 164.382 123.939 167.679 126.621C167.955 123.801 168.095 121.34 168.466 118.867C169.215 113.86 169.652 113.535 174.13 114.147C174.6 114.211 175.08 114.26 175.52 114.392C176.983 114.839 177.598 115.543 176.478 117.603C174.531 121.181 174.431 123.108 175.496 125.932C177.086 123.245 178.692 120.687 180.119 118.048C181.351 115.768 182.695 115.132 184.538 116.101C185.578 116.645 186.726 117.004 188.072 117.548L183.226 124.056C187.171 123.312 190.368 119.295 193.715 121.023L195.035 122.005C193.884 123.133 192.814 124.42 191.559 125.352C189.843 126.624 187.986 127.627 186.19 128.747C186.25 129.041 186.308 129.335 186.368 129.631C187.496 129.389 188.632 129.245 189.752 128.887C191.846 128.212 193.928 127.393 196.02 126.669C199.16 125.583 200.827 126.797 201.515 130.097C197.911 131.151 194.496 132.147 191.083 133.145C194.138 133.604 197.247 133.451 200.33 133.443C204.171 133.432 204.704 134.276 203.794 138.459C200.908 138.681 198.026 138.901 195.142 139.121C195.406 139.516 195.655 139.917 195.9 140.324C196.4 140.416 196.895 140.521 197.366 140.673C199.466 141.353 201.699 141.864 203.496 143.011C204.226 143.479 203.958 145.421 204.142 146.691C203.028 147.115 201.843 147.887 200.816 147.881C200.231 147.879 199.66 147.805 199.087 147.7C200.64 153.104 200.69 158.737 199.007 163.292C196.458 170.189 194.598 177.223 194.854 184.724C195.366 199.911 206.387 212.841 221.119 215.265C226.444 216.14 230.84 214.197 234.775 210.785C241.176 205.236 245.975 199.14 245.046 189.769C244.059 179.819 236.376 170.359 226.611 168.369C221.316 167.291 216.814 169.252 212.764 172.411C207.116 176.817 204.468 187.849 207.512 193.791C210.862 200.328 220.644 204.533 227.635 202.475C232.02 201.181 234.504 198.283 235.278 193.799C236.204 188.423 234.89 183.864 230.283 180.689C226.291 177.939 221.923 177.573 217.564 179.771C214.655 181.235 214.14 185.525 216.234 189C218.611 192.948 223.364 194.497 226.351 192.221C226.95 191.765 227.278 190.955 227.65 190.419C225.42 190.263 223.371 190.332 221.442 189.883C220.63 189.693 219.592 188.445 219.531 187.613C219.463 186.763 220.252 185.4 221.038 185.008C223.952 183.556 227.119 183.269 229.874 185.249C232.535 187.163 232.671 190.087 231.859 193.021C231.004 196.108 229.695 199.351 226.288 199.883C221.436 200.637 216.583 200.237 212.936 196.043C208.231 190.625 207.468 182.621 211.278 177.444C215.364 171.888 222.42 170.205 229.332 173.141C240.994 178.095 245.426 192.207 238.491 202.813C234.182 209.401 227.824 211.476 220.304 209.873C211.447 207.988 203.187 204.512 200.739 194.905C198.22 185.013 200.562 175.556 207.395 167.736C212.794 161.556 223.674 160.004 233.08 163.935C242.955 168.061 250.562 175.92 251.674 187.725L251.627 187.729C251.374 188.436 251.1 189.131 250.811 189.821C251.132 190.184 251.468 190.447 251.814 190.632C251.814 191.203 251.804 191.78 251.775 192.367C251.13 192.417 250.468 192.477 249.6 192.553C249.322 193.168 249.04 193.78 248.764 194.396C249.124 194.299 249.528 194.256 249.856 194.253C250.452 194.249 251.048 194.248 251.643 194.245C251.58 194.9 251.496 195.565 251.398 196.241C251.1 196.259 250.807 196.275 250.512 196.291C249.614 196.343 248.75 196.964 247.868 197.324L248.064 198.233C249.035 198.363 250.007 198.613 250.978 198.601H250.98C250.903 198.992 250.814 199.388 250.723 199.784H246.572C246.278 200.545 245.978 201.301 245.671 202.055C247.187 202.22 248.627 202.389 250.059 202.437C249.923 202.936 249.783 203.436 249.638 203.933C248.436 203.953 247.236 203.976 246.035 203.993C244.406 204.016 243.614 204.523 244.15 206.597H248.78C248.592 207.132 248.392 207.663 248.184 208.187C246.535 208.197 244.89 208.209 243.242 208.229C242.39 208.241 241.548 209.325 240.704 209.911C240.859 210.212 241.015 210.511 241.168 210.813C242.523 210.945 243.876 211.188 245.231 211.196C245.762 211.2 246.291 211.201 246.822 211.205C246.624 211.591 246.42 211.972 246.207 212.347C246.119 212.503 246.026 212.655 245.934 212.808C244.642 212.821 243.351 212.836 242.059 212.859C241.267 212.872 240.535 212.829 239.846 212.708C239.51 213.176 239.163 213.637 238.811 214.092C240.666 214.624 242.54 214.936 244.426 215.119C244.116 215.547 243.799 215.956 243.474 216.352C243.124 216.352 242.78 216.373 242.444 216.44C240.406 216.844 238.606 216.749 236.986 216.275C236.531 216.779 236.064 217.272 235.58 217.747C236.447 217.753 237.69 218.4 238.699 218.461V218.461ZM209.072 237.883C206.854 235.757 204.955 233.251 203.16 230.737C200.65 227.219 198.364 223.533 196.231 219.619C202.59 222.527 204.704 230.097 211.264 234.011C208.512 226.919 202.84 222.999 198.431 217.415C199.028 216.864 199.627 216.311 200.304 215.684C207.166 222.925 216.007 228.073 218.048 238.775C214.775 240.44 211.65 240.351 209.072 237.883V237.883ZM207.452 250.937C204.739 252.436 202.499 251.641 200.08 248.001C195.564 241.201 191.163 234.329 186.712 227.487C186.923 227.153 187.138 226.82 187.351 226.487C188.92 227.308 190.975 227.752 191.968 229.027C194.851 232.736 197.239 236.829 199.968 240.668C201.486 242.803 203.291 244.728 204.968 246.749C205.39 246.511 205.814 246.272 206.236 246.032C205.914 244.728 205.931 243.187 205.212 242.161C201.734 237.195 198.064 232.36 194.439 227.499C193.77 226.603 192.879 225.856 192.307 224.909C192.007 224.416 192.174 223.637 192.132 222.985C192.864 223.048 193.968 222.82 194.272 223.215C199.294 229.672 204.452 236.047 209.046 242.803C211.25 246.043 210.103 249.469 207.452 250.937V250.937ZM179.384 220.785C179.046 220.125 179.739 218.527 180.439 217.819C183.051 215.176 185.859 212.724 188.592 210.205C190.968 208.019 192.832 209.225 194.644 211.081C196.868 213.356 194.471 214.321 193.343 215.524C191.478 217.517 189.556 219.481 187.48 221.248C186.21 222.328 184.611 223.015 182.698 224.155C181.423 222.929 180.032 222.048 179.384 220.785V220.785ZM173.923 212.461C172.734 210.333 171.92 207.993 170.65 205.087C172.166 203.115 173.684 201.113 175.242 199.147C175.543 198.769 175.978 198.476 176.398 198.216C185.07 192.825 184.9 193.495 189.687 202.292C190.226 203.281 189.726 205.575 188.871 206.445C186.294 209.076 183.368 211.392 180.452 213.667C177.376 216.06 175.778 215.777 173.923 212.461V212.461ZM168.934 177.813C174.348 176.612 179.796 175.403 185.308 174.177C186.048 179.659 185.187 180.807 180.796 181.497C178.606 181.843 176.466 182.519 174.27 182.813C170.592 183.308 169.374 182.163 168.934 177.813V177.813ZM173.142 187.067C175.198 186.273 177.299 185.404 179.452 185.112C180.736 184.94 182.163 185.823 183.528 186.228C183.002 187.857 182.955 190.317 181.856 190.948C179.254 192.447 176.158 193.1 173.25 194.049C172.204 194.389 171.119 194.596 169.846 194.913C168.059 189.072 168.043 189.035 173.142 187.067V187.067ZM209.264 133.553C209.411 128.829 213.644 125.701 218.187 127.235C219.187 127.573 220.359 129.027 220.475 130.075C220.98 134.627 221.127 139.217 221.403 143.792C221.356 143.796 221.308 143.8 221.262 143.805C221.262 146.911 221.147 150.021 221.296 153.12C221.439 156.152 220.098 157.759 217.187 158.264C214.239 158.773 211.447 158.425 210.382 155.287C209.48 152.64 208.999 149.749 208.914 146.948C208.778 142.491 209.13 138.017 209.264 133.553V133.553ZM222.671 126.097H226.515V155.192H222.671V126.097ZM230.267 129.072C230.286 123.624 230.83 123.208 236.58 124.076V156.331C231.595 157.388 230.307 156.444 230.283 151.869C230.242 144.271 230.242 136.671 230.267 129.072V129.072ZM269.038 143.056C265.976 142.653 262.882 142.412 259.794 142.284C254.463 142.065 249.127 142.012 243.794 141.817C241.33 141.727 241.072 140.227 241.895 137.543C251.976 138.155 262.127 138.883 272.286 139.331C276.166 139.501 277.026 141.821 277.302 144.913C277.603 148.292 276.439 150.863 272.942 151.713C271.291 152.115 269.483 152.285 267.802 152.097C260.026 151.22 252.267 150.165 244.499 149.199C242.028 148.891 240.34 148.127 242.048 144.7C246.499 145.328 251.116 146.029 255.747 146.616C259.198 147.056 262.663 147.423 266.132 147.659C267.192 147.731 268.426 147.497 269.33 146.971C270.174 146.48 270.682 145.415 271.338 144.604C270.572 144.065 269.859 143.167 269.038 143.056V143.056ZM241.554 122.417C252.056 121.359 262.42 120.715 272.718 123.081C274.343 123.455 276.45 124.2 277.176 125.447C278.39 127.527 279.314 130.191 279.171 132.537C279.004 135.293 276.244 136.136 273.775 136.016C263.726 135.532 253.682 134.911 243.644 134.216C242.986 134.171 242.403 133.08 241.783 132.476C242.471 131.8 243.182 130.521 243.838 130.549C248.283 130.739 252.72 131.161 257.152 131.599C260.356 131.915 263.562 132.761 266.736 132.628C268.89 132.539 270.988 131.161 273.111 130.361C272.999 129.703 272.884 129.045 272.77 128.388C262.658 125.308 252.218 127.229 241.554 127.367V122.417ZM294.718 66H150.679C133.002 66 118.674 79.5813 118.674 96.3333V255.609C118.674 272.361 133.002 285.945 150.679 285.945H294.718C312.392 285.945 326.72 272.361 326.72 255.609V96.3333C326.72 79.5813 312.392 66 294.718 66" fill="white"/>
<path d="M270.434 163.058C262.352 157.85 252.825 158.405 243.898 156.575C251.986 161.765 260.904 163.651 270.434 163.058Z" fill="white"/>
</svg>
