<svg width="302" height="319" viewBox="0 0 302 319" fill="none" xmlns="http://www.w3.org/2000/svg">
<path d="M10.244 264.029H15.3333C16.7653 264.029 17.9813 263.529 18.984 262.527C19.9853 261.525 20.4867 260.329 20.4867 258.939V253.848C20.4867 252.417 19.9853 251.201 18.984 250.199C17.9813 249.197 16.7653 248.696 15.3333 248.696H10.244V264.029ZM0 289.605V243.605H20.4867C23.2667 243.605 25.6587 244.617 27.6613 246.641C29.6653 248.665 30.6667 251.068 30.6667 253.848V258.939C30.6667 261.72 29.6653 264.121 27.6613 266.145C25.6587 268.169 23.2667 269.181 20.4867 269.181H10.244V289.605H0Z" fill="white"/>
<path d="M51.1529 253.848V279.363C51.1529 280.754 51.6529 281.959 52.6556 282.982C53.6556 284.004 54.8516 284.515 56.2423 284.515C57.6743 284.515 58.8903 284.004 59.8929 282.982C60.8943 281.959 61.3956 280.754 61.3956 279.363V253.848C61.3956 252.418 60.8943 251.202 59.8929 250.199C58.8903 249.198 57.6743 248.696 56.2423 248.696C54.8516 248.696 53.6556 249.198 52.6556 250.199C51.6529 251.202 51.1529 252.418 51.1529 253.848ZM51.1529 243.606H61.3956C64.1756 243.606 66.5676 244.618 68.5703 246.642C70.5743 248.666 71.5756 251.068 71.5756 253.848V279.363C71.5756 282.144 70.5743 284.546 68.5703 286.57C66.5676 288.594 64.1756 289.606 61.3956 289.606H51.1529C48.3716 289.606 45.9689 288.604 43.9463 286.6C41.9209 284.598 40.9089 282.183 40.9089 279.363V253.848C40.9089 251.027 41.9209 248.615 43.9463 246.611C45.9689 244.608 48.3716 243.606 51.1529 243.606Z" fill="white"/>
<path d="M112.485 279.363C112.075 286.191 108.681 289.606 102.303 289.606H92.0621C89.2808 289.606 86.8781 288.605 84.8541 286.601C82.8301 284.598 81.8181 282.183 81.8181 279.363V253.849C81.8181 251.067 82.8088 248.666 84.7928 246.641C86.7754 244.617 89.1981 243.606 92.0621 243.606H102.303C108.723 243.606 112.117 247.021 112.485 253.849H107.395C106.985 250.414 105.289 248.697 102.303 248.697H97.1514C95.7608 248.697 94.5648 249.197 93.5648 250.198C92.5621 251.201 92.0621 252.418 92.0621 253.849V279.363C92.0621 280.754 92.5621 281.959 93.5648 282.982C94.5648 284.003 95.7608 284.514 97.1514 284.514H102.303C105.33 284.514 107.026 282.797 107.395 279.363H112.485Z" fill="white"/>
<path d="M122.727 289.605V243.605H132.971V264.029H143.212V243.605H153.394V289.605H143.212V269.181H132.971V289.605H122.727Z" fill="white"/>
<path d="M168.788 289.605V248.696H158.546V243.605H189.212V248.696H178.97V289.605H168.788Z" fill="white"/>
<path d="M194.304 289.605V243.605H219.88V248.696H204.547V264.029H214.788V269.181H204.547V284.515H219.88V289.605H194.304Z" fill="white"/>
<path d="M260.726 279.363C260.316 286.191 256.923 289.606 250.543 289.606H240.302C237.52 289.606 235.119 288.605 233.095 286.601C231.072 284.598 230.059 282.183 230.059 279.363V253.849C230.059 251.067 231.051 248.666 233.032 246.641C235.018 244.617 237.439 243.606 240.302 243.606H250.543C256.963 243.606 260.359 247.021 260.726 253.849H255.635C255.226 250.414 253.528 248.697 250.543 248.697H245.392C244.002 248.697 242.807 249.197 241.804 250.198C240.802 251.201 240.302 252.418 240.302 253.849V279.363C240.302 280.754 240.802 281.959 241.804 282.982C242.807 284.003 244.002 284.514 245.392 284.514H250.543C253.57 284.514 255.267 282.797 255.635 279.363H260.726Z" fill="white"/>
<path d="M281.21 264.029H291.453V253.848C291.453 252.417 290.953 251.201 289.95 250.199C288.948 249.197 287.732 248.696 286.301 248.696C284.91 248.696 283.716 249.197 282.713 250.199C281.71 251.201 281.21 252.417 281.21 253.848V264.029ZM270.968 289.605V253.848C270.968 251.027 271.981 248.615 274.005 246.611C276.028 244.608 278.429 243.605 281.21 243.605H291.453C294.234 243.605 296.628 244.617 298.629 246.641C300.632 248.665 301.634 251.068 301.634 253.848V289.605H291.453V269.181H281.21V289.605H270.968Z" fill="white"/>
<path d="M0.00708008 308.137C0.00708008 306.947 0.221747 305.773 0.652413 304.609C1.08308 303.447 1.70841 302.409 2.53375 301.494C3.35641 300.579 4.36308 299.837 5.55241 299.27C6.74175 298.703 8.09508 298.419 9.61508 298.419C11.4084 298.419 12.9604 298.813 14.2671 299.599C15.5777 300.387 16.5511 301.411 17.1924 302.674L14.2817 304.678C14.0257 304.129 13.7151 303.666 13.3484 303.291C12.9817 302.917 12.5897 302.619 12.1684 302.399C11.7471 302.179 11.3084 302.019 10.8511 301.919C10.3924 301.819 9.94441 301.769 9.50441 301.769C8.55375 301.769 7.72575 301.961 7.02041 302.345C6.31641 302.729 5.73108 303.227 5.26441 303.841C4.79775 304.454 4.44441 305.15 4.20708 305.927C3.96975 306.706 3.85108 307.478 3.85108 308.247C3.85108 309.107 3.98708 309.935 4.26175 310.731C4.53508 311.527 4.92441 312.227 5.42841 312.831C5.93108 313.435 6.53508 313.921 7.24175 314.286C7.94441 314.653 8.71775 314.834 9.56041 314.834C9.99908 314.834 10.4577 314.779 10.9324 314.67C11.4084 314.561 11.8617 314.386 12.2911 314.149C12.7204 313.911 13.1191 313.605 13.4857 313.229C13.8511 312.854 14.1457 312.401 14.3644 311.87L17.4657 313.655C17.1551 314.386 16.7111 315.033 16.1351 315.59C15.5591 316.149 14.9084 316.619 14.1871 317.003C13.4631 317.387 12.6897 317.681 11.8671 317.883C11.0431 318.083 10.2364 318.183 9.44975 318.183C8.05908 318.183 6.78841 317.891 5.63508 317.306C4.48041 316.719 3.48841 315.955 2.65508 315.013C1.82308 314.071 1.17375 312.999 0.70708 311.802C0.241747 310.603 0.00708008 309.382 0.00708008 308.137Z" fill="white"/>
<path d="M24.0265 308.275C24.0265 309.116 24.1558 309.931 24.4105 310.717C24.6665 311.504 25.0385 312.199 25.5225 312.803C26.0065 313.408 26.6038 313.893 27.3065 314.259C28.0118 314.625 28.8118 314.807 29.7105 314.807C30.6238 314.807 31.4345 314.62 32.1385 314.245C32.8425 313.869 33.4385 313.371 33.9238 312.748C34.4078 312.127 34.7745 311.427 35.0212 310.648C35.2678 309.871 35.3918 309.08 35.3918 308.275C35.3918 307.432 35.2598 306.619 34.9945 305.831C34.7278 305.044 34.3532 304.349 33.8692 303.745C33.3838 303.14 32.7878 302.66 32.0838 302.303C31.3798 301.947 30.5878 301.768 29.7105 301.768C28.7932 301.768 27.9798 301.956 27.2665 302.331C26.5532 302.705 25.9572 303.2 25.4812 303.813C25.0052 304.427 24.6452 305.123 24.3972 305.9C24.1505 306.679 24.0265 307.469 24.0265 308.275ZM29.6812 318.156C28.2545 318.156 26.9598 317.877 25.7972 317.319C24.6345 316.761 23.6372 316.021 22.8052 315.096C21.9718 314.172 21.3278 313.115 20.8692 311.925C20.4118 310.736 20.1838 309.52 20.1838 308.275C20.1838 306.975 20.4265 305.731 20.9105 304.54C21.3945 303.352 22.0638 302.3 22.9158 301.384C23.7665 300.469 24.7772 299.741 25.9478 299.201C27.1185 298.661 28.3918 298.392 29.7652 298.392C31.1732 298.392 32.4585 298.68 33.6212 299.256C34.7825 299.833 35.7758 300.587 36.5998 301.521C37.4238 302.455 38.0638 303.516 38.5212 304.705C38.9785 305.896 39.2078 307.103 39.2078 308.329C39.2078 309.629 38.9692 310.868 38.4945 312.048C38.0172 313.229 37.3585 314.272 36.5172 315.179C35.6745 316.084 34.6678 316.807 33.4972 317.347C32.3265 317.887 31.0545 318.156 29.6812 318.156Z" fill="white"/>
<path d="M59.5489 318.019V305.117L54.5249 314.725H52.4662L47.4435 305.117V318.019H43.6555V298.529H47.7182L53.4835 309.619L59.3022 298.529H63.3382V318.019H59.5489Z" fill="white"/>
<path d="M82.4706 314.698V318.019H68.9373V298.528H82.2226V301.85H72.7253V306.544H80.9346V309.619H72.7253V314.698H82.4706Z" fill="white"/>
<path d="M90.7609 308.164H95.5102C95.8569 308.164 96.1822 308.081 96.4849 307.917C96.7862 307.752 97.0476 307.528 97.2676 307.245C97.4862 306.961 97.6609 306.628 97.7889 306.243C97.9156 305.859 97.9809 305.447 97.9809 305.008C97.9809 304.551 97.9076 304.129 97.7609 303.745C97.6142 303.36 97.4182 303.025 97.1716 302.743C96.9236 302.46 96.6396 302.24 96.3196 302.083C95.9996 301.928 95.6756 301.851 95.3449 301.851H90.7609V308.164ZM86.9729 318.02V298.528H95.5929C96.4889 298.528 97.3169 298.716 98.0769 299.091C98.8356 299.468 99.4916 299.961 100.04 300.575C100.588 301.188 101.018 301.883 101.33 302.66C101.641 303.439 101.796 304.221 101.796 305.008C101.796 306.271 101.481 307.419 100.849 308.453C100.218 309.487 99.3622 310.233 98.2836 310.691L102.73 318.02H98.4756L94.4942 311.485H90.7609V318.02H86.9729Z" fill="white"/>
<path d="M105.585 308.137C105.585 306.947 105.799 305.773 106.229 304.609C106.66 303.447 107.285 302.409 108.111 301.494C108.935 300.579 109.94 299.837 111.129 299.27C112.32 298.703 113.673 298.419 115.192 298.419C116.987 298.419 118.537 298.813 119.845 299.599C121.155 300.387 122.128 301.411 122.771 302.674L119.859 304.678C119.604 304.129 119.292 303.666 118.927 303.291C118.559 302.917 118.167 302.619 117.745 302.399C117.325 302.179 116.885 302.019 116.429 301.919C115.971 301.819 115.523 301.769 115.083 301.769C114.131 301.769 113.303 301.961 112.599 302.345C111.893 302.729 111.309 303.227 110.841 303.841C110.375 304.454 110.023 305.15 109.784 305.927C109.547 306.706 109.428 307.478 109.428 308.247C109.428 309.107 109.564 309.935 109.84 310.731C110.113 311.527 110.503 312.227 111.007 312.831C111.509 313.435 112.113 313.921 112.819 314.286C113.523 314.653 114.296 314.834 115.137 314.834C115.577 314.834 116.035 314.779 116.509 314.67C116.987 314.561 117.44 314.386 117.869 314.149C118.299 313.911 118.697 313.605 119.063 313.229C119.429 312.854 119.723 312.401 119.943 311.87L123.044 313.655C122.732 314.386 122.288 315.033 121.713 315.59C121.136 316.149 120.487 316.619 119.764 317.003C119.041 317.387 118.268 317.681 117.445 317.883C116.62 318.083 115.815 318.183 115.028 318.183C113.637 318.183 112.365 317.891 111.213 317.306C110.059 316.719 109.067 315.955 108.233 315.013C107.4 314.071 106.752 312.999 106.284 311.802C105.819 310.603 105.585 309.382 105.585 308.137Z" fill="white"/>
<path d="M127.135 298.529H130.923V318.02H127.135V298.529Z" fill="white"/>
<path d="M146.431 310.497L143.741 302.839L140.942 310.497H146.431ZM142.067 298.528H145.415L152.827 318.02H148.93L147.119 313.16H140.31L138.525 318.02H134.627L142.067 298.528Z" fill="white"/>
<path d="M156.507 318.019V298.529H160.296V314.698H170.234V318.019H156.507Z" fill="white"/>
<path d="M174.076 298.529H177.865V318.02H174.076V298.529Z" fill="white"/>
<path d="M182.256 315.164L193.265 301.851H182.559V298.528H197.629V301.384L186.979 314.697H197.712V318.02H182.256V315.164Z" fill="white"/>
<path d="M212.124 310.497L209.434 302.839L206.634 310.497H212.124ZM207.76 298.528H211.108L218.52 318.02H214.623L212.811 313.16H206.003L204.218 318.02H200.319L207.76 298.528Z" fill="white"/>
<path d="M235.075 308.247C235.075 307.314 234.946 306.453 234.691 305.666C234.435 304.881 234.059 304.202 233.564 303.635C233.071 303.067 232.462 302.629 231.739 302.318C231.016 302.006 230.198 301.85 229.282 301.85H225.99V314.698H229.282C230.215 314.698 231.044 314.533 231.767 314.203C232.491 313.874 233.094 313.422 233.579 312.845C234.063 312.269 234.435 311.587 234.691 310.799C234.946 310.013 235.075 309.163 235.075 308.247ZM222.2 318.019V298.529H229.282C230.875 298.529 232.27 298.785 233.47 299.298C234.667 299.81 235.67 300.505 236.475 301.385C237.28 302.262 237.883 303.291 238.287 304.473C238.69 305.653 238.89 306.911 238.89 308.247C238.89 309.729 238.666 311.07 238.218 312.269C237.77 313.467 237.124 314.493 236.283 315.342C235.44 316.194 234.431 316.853 233.25 317.319C232.068 317.786 230.747 318.019 229.282 318.019H222.2Z" fill="white"/>
<path d="M246.054 308.275C246.054 309.116 246.182 309.931 246.438 310.717C246.694 311.504 247.066 312.199 247.55 312.803C248.034 313.408 248.63 313.893 249.335 314.259C250.038 314.625 250.839 314.807 251.737 314.807C252.651 314.807 253.462 314.62 254.166 314.245C254.87 313.869 255.466 313.371 255.951 312.748C256.435 312.127 256.802 311.427 257.049 310.648C257.297 309.871 257.418 309.08 257.418 308.275C257.418 307.432 257.286 306.619 257.022 305.831C256.755 305.044 256.381 304.349 255.895 303.745C255.411 303.14 254.815 302.66 254.111 302.303C253.407 301.947 252.615 301.768 251.737 301.768C250.821 301.768 250.007 301.956 249.294 302.331C248.581 302.705 247.985 303.2 247.51 303.813C247.033 304.427 246.673 305.123 246.425 305.9C246.178 306.679 246.054 307.469 246.054 308.275ZM251.709 318.156C250.282 318.156 248.986 317.877 247.825 317.319C246.662 316.761 245.665 316.021 244.833 315.096C243.999 314.172 243.355 313.115 242.898 311.925C242.439 310.736 242.211 309.52 242.211 308.275C242.211 306.975 242.454 305.731 242.938 304.54C243.423 303.352 244.091 302.3 244.942 301.384C245.794 300.469 246.803 299.741 247.975 299.201C249.146 298.661 250.418 298.392 251.791 298.392C253.201 298.392 254.486 298.68 255.649 299.256C256.81 299.833 257.805 300.587 258.627 301.521C259.451 302.455 260.09 303.516 260.549 304.705C261.006 305.896 261.235 307.103 261.235 308.329C261.235 309.629 260.997 310.868 260.522 312.048C260.045 313.229 259.386 314.272 258.545 315.179C257.702 316.084 256.695 316.807 255.526 317.347C254.354 317.887 253.082 318.156 251.709 318.156Z" fill="white"/>
<path d="M269.472 308.164H274.221C274.568 308.164 274.892 308.081 275.195 307.917C275.497 307.752 275.759 307.528 275.977 307.245C276.197 306.961 276.371 306.628 276.5 306.243C276.627 305.859 276.691 305.447 276.691 305.008C276.691 304.551 276.617 304.129 276.472 303.745C276.325 303.36 276.128 303.025 275.881 302.743C275.635 302.46 275.351 302.24 275.031 302.083C274.711 301.928 274.385 301.851 274.056 301.851H269.472V308.164ZM265.683 318.02V298.528H274.303C275.2 298.528 276.028 298.716 276.787 299.091C277.547 299.468 278.201 299.961 278.751 300.575C279.299 301.188 279.728 301.883 280.04 302.66C280.351 303.439 280.507 304.221 280.507 305.008C280.507 306.271 280.191 307.419 279.559 308.453C278.929 309.487 278.072 310.233 276.993 310.691L281.441 318.02H277.185L273.205 311.485H269.472V318.02H265.683Z" fill="white"/>
<path d="M295.084 310.497L292.393 302.839L289.593 310.497H295.084ZM290.72 298.528H294.068L301.48 318.02H297.583L295.771 313.16H288.963L287.177 318.02H283.279L290.72 298.528Z" fill="white"/>
<path d="M86.7101 73.2011C88.2568 72.2825 89.8221 71.3891 91.3381 70.4158C91.5568 70.2745 91.5381 69.7598 91.9234 68.3211C89.4154 69.5958 87.6088 70.5131 85.7981 71.4331C86.1008 72.0225 86.4048 72.6118 86.7101 73.2011Z" fill="white"/>
<path d="M68.6711 83.0344C68.6245 83.3931 68.5805 83.7518 68.5325 84.1104C78.0311 88.7731 86.0565 96.5638 97.7098 96.7851C95.1325 95.1318 92.6685 93.2571 89.9551 91.8718C83.9338 88.7944 77.8071 85.9198 71.6658 83.0878C70.8351 82.7038 69.6765 83.0344 68.6711 83.0344Z" fill="white"/>
<path d="M102.481 77.8223C101.916 78.085 100.402 76.317 99.8384 75.877C99.7984 72.1316 101.478 70.8316 103.786 71.221C105.062 71.4356 106.093 73.0983 107.233 74.109C105.676 75.405 104.254 76.9956 102.481 77.8223ZM102.036 66.109C99.1944 66.2223 95.9504 70.9236 95.9971 74.8623C96.0357 78.2063 99.4131 80.9303 103.546 80.953C107.52 80.973 110.405 78.1076 110.338 74.209C110.273 70.3783 105.746 65.9623 102.036 66.109Z" fill="white"/>
<path d="M142.07 70.9641C142.583 70.8827 143.096 70.8041 143.608 70.7254C143.431 68.9214 143.255 67.1161 143.08 65.3121C142.242 65.4627 140.939 65.3334 140.648 65.8161C139.356 67.9561 140.007 69.7361 142.07 70.9641Z" fill="white"/>
<path d="M102.528 137.614C101.963 138.57 100.779 139.667 100.96 140.451C101.364 142.203 102.447 143.802 103.255 145.461C103.635 145.418 104.017 145.374 104.397 145.331C104.809 144.299 105.809 143.039 105.515 142.279C104.861 140.591 103.561 139.153 102.528 137.614Z" fill="white"/>
<path d="M109.481 139.253C110.072 138.312 111.226 137.305 111.124 136.448C110.981 135.245 109.905 134.156 109.229 133.016C108.848 133.069 108.468 133.124 108.088 133.179C107.732 134.061 106.885 135.12 107.124 135.788C107.582 137.061 108.661 138.111 109.481 139.253Z" fill="white"/>
<path d="M141.866 88.2728C142.566 88.5528 143.79 87.5154 145.358 86.8048C143.208 84.8674 142.46 83.7194 141.525 83.5354C140.968 83.4248 139.385 85.0914 139.533 85.5141C139.918 86.6128 140.845 87.8648 141.866 88.2728Z" fill="white"/>
<path d="M111.314 83.0449C108.997 84.7676 109.054 86.5089 111.658 87.8396C114.057 89.0663 116.585 90.0316 119.462 91.2929C119.27 89.2743 119.325 87.4183 118.882 85.6889C117.71 81.1156 115.072 80.2529 111.314 83.0449Z" fill="white"/>
<path d="M143.385 77.7415C142.843 76.5388 142.302 75.3335 141.762 74.1308C141.379 74.1908 140.999 74.2508 140.617 74.3108C140.257 75.6015 139.895 76.8922 139.533 78.1828C139.809 78.4708 140.082 78.7588 140.357 79.0455C141.363 78.6095 142.374 78.1762 143.385 77.7415Z" fill="white"/>
<path d="M220.226 136.251C215.259 138.192 210.026 138.595 204.546 137.977C204.431 135.727 204.152 133.757 204.324 131.828C204.395 131.04 205.368 129.809 206.075 129.695C209.192 129.199 212.374 129.128 215.507 128.724C218.499 128.339 220.848 129.384 222.854 131.487C222.871 131.831 222.887 132.173 222.906 132.517C222.028 133.803 221.423 135.783 220.226 136.251ZM222.434 144.133C222.207 146.508 220.778 147.943 218.532 148.223C213.807 148.815 209.054 149.187 204.026 149.675C203.936 147.932 203.843 146.833 203.832 145.739C203.778 139.836 203.78 139.704 209.69 139.479C212.89 139.356 216.155 139.516 219.307 140.049C221.163 140.363 222.66 141.811 222.434 144.133V144.133ZM216.354 161.668C214.731 161.805 213.087 161.695 211.452 161.697C211.452 161.644 211.45 161.591 211.447 161.537C209.728 161.623 208.012 161.719 206.294 161.795C204.958 161.853 203.507 161.924 203.575 160.004C203.674 157.251 202.346 153.025 205.275 152.259C209.606 151.127 214.444 151.801 219.059 151.969C220.96 152.04 221.986 153.389 222.067 155.48C222.199 158.935 220.119 161.355 216.354 161.668V161.668ZM203.062 122.028C202.851 120.612 203.368 119.705 204.843 119.424C207.616 118.896 210.387 118.347 213.16 117.808C213.171 117.873 213.184 117.94 213.198 118.003C214.14 117.956 215.09 117.825 216.028 117.879C218.54 118.02 220.726 119.903 220.906 121.991C221.124 124.548 219.882 125.973 216.819 126.619C214.556 127.096 212.302 127.675 210.01 127.957C204.728 128.607 203.864 127.864 203.15 122.536C203.13 122.365 203.086 122.199 203.062 122.028V122.028ZM197.707 104.229C187.22 103.716 177.578 100.524 168.83 94.7453C168.007 94.2013 167.51 92.76 167.376 91.672C167.218 90.3493 167.608 88.9613 167.892 86.444C177.515 87.616 187.144 88.3173 196.567 90.112C202.346 91.2147 204.083 95.3347 202.535 100.46C201.804 102.887 200.338 104.36 197.707 104.229ZM201.586 133.487L201.72 136.172C194.966 136.513 188.368 136.892 181.764 137.152C181.586 137.16 181.406 137.164 181.226 137.167C181.39 136.404 181.543 135.641 181.684 134.884C181.71 134.749 181.731 134.617 181.754 134.485L201.586 133.487ZM182.25 130.912C187.491 130.353 192.742 129.851 197.999 129.483C199.108 129.405 201.023 128.177 201.231 130.439C201.272 130.915 199.25 131.985 198.108 132.099C192.739 132.632 187.343 132.949 181.955 133.289C182.078 132.483 182.176 131.691 182.25 130.912V130.912ZM200.663 127.857C194.567 128.264 188.48 128.567 182.395 128.905C182.426 128.268 182.436 127.64 182.434 127.023C182.471 127.017 182.51 127.012 182.546 127.007C187.914 126.32 193.283 125.639 198.647 124.945C200.474 124.709 201.207 125.376 200.663 127.857V127.857ZM187.056 125.159C185.491 125.344 183.874 125.996 182.384 125.289C182.33 124.296 182.236 123.332 182.098 122.393C188.324 121.636 194.092 120.933 200.007 120.213C200.234 121.436 200.423 122.473 200.647 123.688C195.914 124.196 191.478 124.632 187.056 125.159ZM200.642 140.301C199.21 140.521 197.742 140.501 196.286 140.573C190.911 140.844 185.532 141.115 180.158 141.387C180.423 140.493 180.66 139.589 180.879 138.681L198.054 137.489C198.978 137.428 199.971 137.449 200.832 137.731C201.316 137.888 201.895 138.657 201.89 139.145C201.884 139.553 201.135 140.227 200.642 140.301ZM198.786 153.877C190.307 153.901 181.824 153.847 173.346 153.768C174.048 153.043 174.715 152.251 175.348 151.396C175.862 151.371 176.384 151.391 176.898 151.389C184.116 151.353 191.338 151.267 198.556 151.377C199.663 151.395 200.756 152.343 201.856 152.863C200.832 153.217 199.811 153.873 198.786 153.877V153.877ZM198.934 160.108C198.108 160.407 197.067 160.196 196.132 160.101C189.671 159.445 183.202 158.804 176.747 158.072C174.215 157.784 171.692 157.412 169.166 157.044C169.988 156.567 170.775 156.025 171.528 155.42C179.247 155.56 186.966 155.716 194.682 155.884C196.22 155.919 197.814 155.837 199.27 156.225C199.944 156.405 200.799 157.619 200.75 158.307C200.699 158.971 199.698 159.829 198.934 160.108V160.108ZM178.434 146.087C178.884 145.087 179.286 144.056 179.643 143.004C186.059 142.641 192.48 142.357 198.903 142.145C199.723 142.119 200.575 143.056 201.414 143.547C200.6 144.06 199.816 144.969 198.975 145.023C192.135 145.46 185.283 145.781 178.434 146.087V146.087ZM198.499 146.685C199.395 146.64 200.296 146.679 201.166 146.68C201.374 149.053 200.322 149.809 198.283 149.764C196.138 149.715 193.978 150.003 191.838 149.897C186.647 149.645 181.426 150.36 176.236 150.116C176.726 149.365 177.187 148.569 177.627 147.732C184.58 147.315 191.543 147.027 198.499 146.685V146.685ZM164.699 152.461C165.586 152.515 166.471 152.567 167.354 152.619C166.744 153.187 166.108 153.705 165.455 154.18C164.523 154.116 163.592 154.051 162.663 153.987C161.862 153.932 161.048 154.079 160.242 154.133L160.092 155.111C161.067 155.296 162.04 155.489 163.015 155.681C158.168 158.168 152.283 158.449 145.368 156.387C124.622 150.195 113.606 137.653 113.463 115.205C113.442 112.177 114.458 109.112 115.207 106.117C116.898 99.3906 116.106 96.9787 110.39 93.1733C104.023 88.936 97.6925 84.628 91.1525 80.664C86.3685 77.7613 81.1298 76.5733 75.1978 79.5853C76.7912 80.3813 78.4032 81.144 79.9752 81.9773C88.8378 86.6827 97.7472 91.308 106.474 96.252C107.458 96.8106 107.4 99.204 107.827 100.745C107.531 100.887 107.236 101.029 106.936 101.169C107.27 101.276 107.606 101.371 107.936 101.485C109.236 101.945 111.314 102.072 111.684 102.933C112.671 105.233 110.548 105.981 108.843 106.165C104.414 106.641 99.9498 107.099 95.5072 107.039C93.8565 107.016 91.8538 105.899 90.6445 104.663C84.9232 98.8 77.5898 95.7013 70.4005 92.316C68.4912 91.4187 66.5725 90.548 64.6872 89.6067C60.5458 87.5373 60.0645 86.3147 61.9778 82.0813C64.2912 76.9613 68.7205 74.5986 73.9205 73.568C76.7258 73.0133 78.7098 72.084 80.1525 69.2507C80.9085 67.768 81.7992 66.5347 82.7938 65.508C81.6738 63.5293 80.4338 61.6427 79.3738 59.6213C78.5405 58.0307 78.9938 56.208 80.8432 55.256C81.4005 54.9707 82.5592 56.2453 83.2072 57.0333C84.4058 58.4853 85.4312 60.108 86.5312 61.6573C86.8165 61.4627 87.1032 61.2707 87.3898 61.076C87.0432 59.8173 86.7018 58.556 86.3565 57.2987C85.0725 52.64 85.6658 51.612 90.8112 49.8573C92.0152 53.1507 90.3818 57.9387 93.6792 60.6213C93.9552 57.8013 94.0952 55.34 94.4658 52.8667C95.2152 47.86 95.6525 47.5347 100.13 48.1467C100.6 48.2107 101.08 48.26 101.52 48.392C102.983 48.8387 103.598 49.5427 102.478 51.6027C100.531 55.1813 100.431 57.108 101.496 59.932C103.086 57.2453 104.692 54.6867 106.119 52.048C107.351 49.768 108.695 49.132 110.538 50.1013C111.578 50.6453 112.726 51.004 114.072 51.548L109.226 58.056C113.171 57.312 116.368 53.2947 119.715 55.0227L121.035 56.0053C119.884 57.1333 118.814 58.42 117.559 59.352C115.843 60.624 113.986 61.6267 112.19 62.7467C112.25 63.0413 112.308 63.3347 112.368 63.6307C113.496 63.3893 114.632 63.2453 115.752 62.8867C117.846 62.212 119.928 61.3933 122.02 60.6693C125.16 59.5827 126.827 60.7973 127.515 64.0973C123.911 65.1507 120.496 66.1467 117.083 67.1453C120.138 67.604 123.247 67.4507 126.33 67.4427C130.171 67.432 130.704 68.276 129.794 72.4586C126.908 72.6813 124.026 72.9013 121.142 73.1213C121.406 73.516 121.655 73.9173 121.9 74.324C122.4 74.416 122.895 74.5213 123.366 74.6733C125.466 75.3533 127.699 75.864 129.496 77.0106C130.226 77.4786 129.958 79.4213 130.142 80.6907C129.028 81.1147 127.843 81.8866 126.816 81.8813C126.231 81.8786 125.66 81.8053 125.087 81.7C126.64 87.104 126.69 92.7373 125.007 97.292C122.458 104.189 120.598 111.223 120.854 118.724C121.366 133.911 132.387 146.841 147.119 149.265C152.444 150.14 156.84 148.197 160.775 144.785C167.176 139.236 171.975 133.14 171.046 123.769C170.059 113.819 162.376 104.359 152.611 102.369C147.316 101.291 142.814 103.252 138.764 106.411C133.116 110.817 130.468 121.849 133.512 127.791C136.862 134.328 146.644 138.533 153.635 136.475C158.02 135.181 160.504 132.283 161.278 127.799C162.204 122.423 160.89 117.864 156.283 114.689C152.291 111.939 147.923 111.573 143.564 113.771C140.655 115.235 140.14 119.525 142.234 123C144.611 126.948 149.364 128.497 152.351 126.221C152.95 125.765 153.278 124.955 153.65 124.419C151.42 124.263 149.371 124.332 147.442 123.883C146.63 123.693 145.592 122.445 145.531 121.613C145.463 120.763 146.252 119.4 147.038 119.008C149.952 117.556 153.119 117.269 155.874 119.249C158.535 121.163 158.671 124.087 157.859 127.021C157.004 130.108 155.695 133.351 152.288 133.883C147.436 134.637 142.583 134.237 138.936 130.043C134.231 124.625 133.468 116.621 137.278 111.444C141.364 105.888 148.42 104.205 155.332 107.141C166.994 112.095 171.426 126.207 164.491 136.813C160.182 143.401 153.824 145.476 146.304 143.873C137.447 141.988 129.187 138.512 126.739 128.905C124.22 119.013 126.562 109.556 133.395 101.736C138.794 95.556 149.674 94.004 159.08 97.9347C168.955 102.061 176.562 109.92 177.674 121.725L177.627 121.729C177.374 122.436 177.1 123.131 176.811 123.821C177.132 124.184 177.468 124.447 177.814 124.632C177.814 125.203 177.804 125.78 177.775 126.367C177.13 126.417 176.468 126.477 175.6 126.553C175.322 127.168 175.04 127.78 174.764 128.396C175.124 128.299 175.528 128.256 175.856 128.253C176.452 128.249 177.048 128.248 177.643 128.245C177.58 128.9 177.496 129.565 177.398 130.241C177.1 130.259 176.807 130.275 176.512 130.291C175.614 130.343 174.75 130.964 173.868 131.324L174.064 132.233C175.035 132.363 176.007 132.613 176.978 132.601H176.98C176.903 132.992 176.814 133.388 176.723 133.784H172.572C172.278 134.545 171.978 135.301 171.671 136.055C173.187 136.22 174.627 136.389 176.059 136.437C175.923 136.936 175.783 137.436 175.638 137.933C174.436 137.953 173.236 137.976 172.035 137.993C170.406 138.016 169.614 138.523 170.15 140.597H174.78C174.592 141.132 174.392 141.663 174.184 142.187C172.535 142.197 170.89 142.209 169.242 142.229C168.39 142.241 167.548 143.325 166.704 143.911C166.859 144.212 167.015 144.511 167.168 144.813C168.523 144.945 169.876 145.188 171.231 145.196C171.762 145.2 172.291 145.201 172.822 145.205C172.624 145.591 172.42 145.972 172.207 146.347C172.119 146.503 172.026 146.655 171.934 146.808C170.642 146.821 169.351 146.836 168.059 146.859C167.267 146.872 166.535 146.829 165.846 146.708C165.51 147.176 165.163 147.637 164.811 148.092C166.666 148.624 168.54 148.936 170.426 149.119C170.116 149.547 169.799 149.956 169.474 150.352C169.124 150.352 168.78 150.373 168.444 150.44C166.406 150.844 164.606 150.749 162.986 150.275C162.531 150.779 162.064 151.272 161.58 151.747C162.447 151.753 163.69 152.4 164.699 152.461V152.461ZM135.072 171.883C132.854 169.757 130.955 167.251 129.16 164.737C126.65 161.219 124.364 157.533 122.231 153.619C128.59 156.527 130.704 164.097 137.264 168.011C134.512 160.919 128.84 156.999 124.431 151.415C125.028 150.864 125.627 150.311 126.304 149.684C133.166 156.925 142.007 162.073 144.048 172.775C140.775 174.44 137.65 174.351 135.072 171.883V171.883ZM133.452 184.937C130.739 186.436 128.499 185.641 126.08 182.001C121.564 175.201 117.163 168.329 112.712 161.487C112.923 161.153 113.138 160.82 113.351 160.487C114.92 161.308 116.975 161.752 117.968 163.027C120.851 166.736 123.239 170.829 125.968 174.668C127.486 176.803 129.291 178.728 130.968 180.749C131.39 180.511 131.814 180.272 132.236 180.032C131.914 178.728 131.931 177.187 131.212 176.161C127.734 171.195 124.064 166.36 120.439 161.499C119.77 160.603 118.879 159.856 118.307 158.909C118.007 158.416 118.174 157.637 118.132 156.985C118.864 157.048 119.968 156.82 120.272 157.215C125.294 163.672 130.452 170.047 135.046 176.803C137.25 180.043 136.103 183.469 133.452 184.937V184.937ZM105.384 154.785C105.046 154.125 105.739 152.527 106.439 151.819C109.051 149.176 111.859 146.724 114.592 144.205C116.968 142.019 118.832 143.225 120.644 145.081C122.868 147.356 120.471 148.321 119.343 149.524C117.478 151.517 115.556 153.481 113.48 155.248C112.21 156.328 110.611 157.015 108.698 158.155C107.423 156.929 106.032 156.048 105.384 154.785V154.785ZM99.9232 146.461C98.7338 144.333 97.9205 141.993 96.6498 139.087C98.1658 137.115 99.6845 135.113 101.242 133.147C101.543 132.769 101.978 132.476 102.398 132.216C111.07 126.825 110.9 127.495 115.687 136.292C116.226 137.281 115.726 139.575 114.871 140.445C112.294 143.076 109.368 145.392 106.452 147.667C103.376 150.06 101.778 149.777 99.9232 146.461V146.461ZM94.9338 111.813C100.348 110.612 105.796 109.403 111.308 108.177C112.048 113.659 111.187 114.807 106.796 115.497C104.606 115.843 102.466 116.519 100.27 116.813C96.5925 117.308 95.3738 116.163 94.9338 111.813V111.813ZM99.1418 121.067C101.198 120.273 103.299 119.404 105.452 119.112C106.736 118.94 108.163 119.823 109.528 120.228C109.002 121.857 108.955 124.317 107.856 124.948C105.254 126.447 102.158 127.1 99.2498 128.049C98.2045 128.389 97.1192 128.596 95.8458 128.913C94.0592 123.072 94.0432 123.035 99.1418 121.067V121.067ZM135.264 67.5533C135.411 62.8293 139.644 59.7013 144.187 61.2346C145.187 61.5733 146.359 63.0267 146.475 64.0747C146.98 68.6267 147.127 73.2173 147.403 77.792C147.356 77.796 147.308 77.8 147.262 77.8053C147.262 80.9107 147.147 84.0213 147.296 87.12C147.439 90.152 146.098 91.7587 143.187 92.264C140.239 92.7733 137.447 92.4253 136.382 89.2866C135.48 86.64 134.999 83.7493 134.914 80.948C134.778 76.4907 135.13 72.0173 135.264 67.5533V67.5533ZM148.671 60.0973H152.515V89.192H148.671V60.0973ZM156.267 63.072C156.286 57.624 156.83 57.208 162.58 58.076V90.3307C157.595 91.388 156.307 90.444 156.283 85.8693C156.242 78.2707 156.242 70.6707 156.267 63.072V63.072ZM195.038 77.056C191.976 76.6533 188.882 76.412 185.794 76.284C180.463 76.0653 175.127 76.012 169.794 75.8173C167.33 75.7267 167.072 74.2267 167.895 71.5427C177.976 72.1547 188.127 72.8827 198.286 73.3307C202.166 73.5013 203.026 75.8213 203.302 78.9133C203.603 82.292 202.439 84.8627 198.942 85.7133C197.291 86.1147 195.483 86.2853 193.802 86.0973C186.026 85.22 178.267 84.1653 170.499 83.1987C168.028 82.8907 166.34 82.1267 168.048 78.7C172.499 79.328 177.116 80.0293 181.747 80.616C185.198 81.056 188.663 81.4227 192.132 81.6587C193.192 81.7307 194.426 81.4973 195.33 80.9707C196.174 80.48 196.682 79.4147 197.338 78.604C196.572 78.0653 195.859 77.1667 195.038 77.056V77.056ZM167.554 56.4173C178.056 55.3587 188.42 54.7147 198.718 57.0813C200.343 57.4547 202.45 58.2 203.176 59.4467C204.39 61.5267 205.314 64.1907 205.171 66.5373C205.004 69.2933 202.244 70.136 199.775 70.016C189.726 69.532 179.682 68.9107 169.644 68.216C168.986 68.1707 168.403 67.08 167.783 66.476C168.471 65.8 169.182 64.5213 169.838 64.5493C174.283 64.7387 178.72 65.1613 183.152 65.5987C186.356 65.9147 189.562 66.7613 192.736 66.628C194.89 66.5387 196.988 65.1613 199.111 64.3613C198.999 63.7027 198.884 63.0453 198.77 62.388C188.658 59.308 178.218 61.2293 167.554 61.3667V56.4173ZM220.718 -7.23529e-06H76.6792C59.0018 -7.23529e-06 44.6738 13.5813 44.6738 30.3333V189.609C44.6738 206.361 59.0018 219.945 76.6792 219.945H220.718C238.392 219.945 252.72 206.361 252.72 189.609V30.3333C252.72 13.5813 238.392 -7.23529e-06 220.718 -7.23529e-06" fill="white"/>
<path d="M196.434 97.0579C188.352 91.8499 178.825 92.4046 169.898 90.5753C177.986 95.7646 186.904 97.6513 196.434 97.0579Z" fill="white"/>
</svg>
